<svg width="14" height="18" viewBox="0 0 14 18" version="1.1" xmlns="http://www.w3.org/2000/svg" xmlns:xlink="http://www.w3.org/1999/xlink">
<g id="Canvas" fill="none">
<g id="Subtract">
<path fill-rule="evenodd" clip-rule="evenodd" d="M 6.87061 0L 7.16602 0C 10.9707 0 14.0366 3.11255 13.9996 6.9751L 13.9996 16.6875C 13.9996 17.4375 13.4087 18 12.6699 18L 1.32983 18C 0.591064 18 0 17.4375 0 16.6875L 0 6.9751C 0 3.1499 3.10278 0 6.87061 0ZM 4 8C 4.55225 8 5 7.55225 5 7C 5 6.44775 4.55225 6 4 6C 3.44775 6 3 6.44775 3 7C 3 7.55225 3.44775 8 4 8ZM 11 7C 11 7.55225 10.5522 8 10 8C 9.44775 8 9 7.55225 9 7C 9 6.44775 9.44775 6 10 6C 10.5522 6 11 6.44775 11 7ZM 7 13C 8.65686 13 10 11.657 10 10L 7 10L 4 10C 4 11.657 5.34314 13 7 13Z" fill="white"/>
</g>
</g>
</svg>

