<svg width="288" height="191" viewBox="0 0 288 191" version="1.1" xmlns="http://www.w3.org/2000/svg" xmlns:xlink="http://www.w3.org/1999/xlink">
<g id="Canvas" fill="none">
<g id="Group 8.1">
<g id="Rectangle 2.13 (Stroke)">
<path fill-rule="evenodd" clip-rule="evenodd" d="M 13 6.11937L 24.5 13.1963L 24.5 1.5L 1.5 1.5L 1.5 13.1963L 13 6.11937ZM 1.5 16.5L 1.5 14.9576L 13 7.88063L 24.5 14.9576L 24.5 16.5L 1.5 16.5ZM 0 0L 26 0L 26 18L 0 18L 0 0Z" transform="matrix(0.78347 0.62143 0.62143 -0.78347 256 54.1025)" fill="#3DBBCF"/>
</g>
<g id="Rectangle 2.14 (Stroke)">
<path fill-rule="evenodd" clip-rule="evenodd" d="M 13 6.11937L 24.5 13.1963L 24.5 1.5L 1.5 1.5L 1.5 13.1963L 13 6.11937ZM 1.5 16.5L 1.5 14.9576L 13 7.88063L 24.5 14.9576L 24.5 16.5L 1.5 16.5ZM 0 0L 26 0L 26 18L 0 18L 0 0Z" transform="matrix(0.949575 -0.313539 -0.313539 -0.949575 41.4351 29.2441)" fill="#3DBBCF"/>
</g>
<g id="Rectangle 2.15 (Stroke)">
<path fill-rule="evenodd" clip-rule="evenodd" d="M 13 6.11937L 24.5 13.1963L 24.5 1.5L 1.5 1.5L 1.5 13.1963L 13 6.11937ZM 1.5 16.5L 1.5 14.9576L 13 7.88063L 24.5 14.9576L 24.5 16.5L 1.5 16.5ZM 0 0L 26 0L 26 18L 0 18L 0 0Z" transform="matrix(0.809403 0.587254 0.587254 -0.809403 44.9999 118.569)" fill="#3DBBCF"/>
</g>
<g id="Rectangle 2.16 (Stroke)">
<path fill-rule="evenodd" clip-rule="evenodd" d="M 13 6.11937L 24.5 13.1963L 24.5 1.5L 1.5 1.5L 1.5 13.1963L 13 6.11937ZM 1.5 16.5L 1.5 14.9576L 13 7.88063L 24.5 14.9576L 24.5 16.5L 1.5 16.5ZM 0 0L 26 0L 26 18L 0 18L 0 0Z" transform="matrix(0.977739 -0.209823 -0.209823 -0.977739 3.77679 188.055)" fill="#3DBBCF"/>
</g>
<g id="Rectangle 2.17 (Stroke)">
<path fill-rule="evenodd" clip-rule="evenodd" d="M 13 6.11937L 24.5 13.1963L 24.5 1.5L 1.5 1.5L 1.5 13.1963L 13 6.11937ZM 1.5 16.5L 1.5 14.9576L 13 7.88063L 24.5 14.9576L 24.5 16.5L 1.5 16.5ZM 0 0L 26 0L 26 18L 0 18L 0 0Z" transform="matrix(0.876722 -0.480997 -0.480997 -0.876722 183.346 169.145)" fill="#3DBBCF"/>
</g>
<g id="Rectangle 2.18 (Stroke)">
<path fill-rule="evenodd" clip-rule="evenodd" d="M 13 6.11937L 24.5 13.1963L 24.5 1.5L 1.5 1.5L 1.5 13.1963L 13 6.11937ZM 1.5 16.5L 1.5 14.9576L 13 7.88063L 24.5 14.9576L 24.5 16.5L 1.5 16.5ZM 0 0L 26 0L 26 18L 0 18L 0 0Z" transform="matrix(0.954995 0.296623 0.296623 -0.954995 226.607 116.272)" fill="#3DBBCF"/>
</g>
<g id="Rectangle 2.12 (Stroke)">
<path fill-rule="evenodd" clip-rule="evenodd" d="M 13 6.11936L 24.5 13.1963L 24.5 1.5L 1.5 1.5L 1.5 13.1967L 13 6.11936ZM 1.5 16.5L 1.5 14.958L 13 7.88064L 24.5 14.9576L 24.5 16.5L 1.5 16.5ZM 0 0L 26 0L 26 18L 0 18L 0 0Z" transform="matrix(0.949575 -0.313539 -0.313539 -0.949575 147.644 58.2441)" fill="#3DBBCF"/>
</g>
<g id="Group 7.8">
<g id="Group 6">
<g id="Ellipse 2 (Stroke)">
<path fill-rule="evenodd" clip-rule="evenodd" d="M 1 0C 1 0.552285 1.44772 1 2 1C 2.55228 1 3 0.552285 3 0L 4 0C 4 1.10457 3.10457 2 2 2C 0.89543 2 0 1.10457 0 0L 1 0Z" transform="matrix(0.841182 0.540752 -0.540752 0.841182 159.231 91.6221)" fill="#3DBBCF"/>
</g>
<g id="Ellipse 2.1 (Stroke)">
<path fill-rule="evenodd" clip-rule="evenodd" d="M 1 0C 1 0.552285 1.44772 1 2 1C 2.55228 1 3 0.552285 3 0L 4 0C 4 1.10457 3.10457 2 2 2C 0.89543 2 0 1.10457 0 0L 1 0Z" transform="matrix(0.841182 0.540752 -0.540752 0.841182 161.755 93.2446)" fill="#3DBBCF"/>
</g>
<g id="Ellipse 2.2 (Stroke)">
<path fill-rule="evenodd" clip-rule="evenodd" d="M 1 0C 1 0.552285 1.44772 1 2 1C 2.55228 1 3 0.552285 3 0L 4 0C 4 1.10457 3.10457 2 2 2C 0.89543 2 0 1.10457 0 0L 1 0Z" transform="matrix(0.841182 0.540752 -0.540752 0.841182 164.278 94.8667)" fill="#3DBBCF"/>
</g>
<g id="Ellipse 2.3 (Stroke)">
<path fill-rule="evenodd" clip-rule="evenodd" d="M 1 0C 1 0.552285 1.44772 1 2 1C 2.55228 1 3 0.552285 3 0L 4 0C 4 1.10457 3.10457 2 2 2C 0.89543 2 0 1.10457 0 0L 1 0Z" transform="matrix(0.841182 0.540752 -0.540752 0.841182 166.802 96.4893)" fill="#3DBBCF"/>
</g>
<g id="Ellipse 2.4 (Stroke)">
<path fill-rule="evenodd" clip-rule="evenodd" d="M 1 0C 1 0.552285 1.44772 1 2 1C 2.55228 1 3 0.552285 3 0L 4 0C 4 1.10457 3.10457 2 2 2C 0.89543 2 0 1.10457 0 0L 1 0Z" transform="matrix(0.841182 0.540752 -0.540752 0.841182 169.325 98.1113)" fill="#3DBBCF"/>
</g>
<g id="Ellipse 2.5 (Stroke)">
<path fill-rule="evenodd" clip-rule="evenodd" d="M 1 0C 1 0.552285 1.44772 1 2 1C 2.55228 1 3 0.552285 3 0L 4 0C 4 1.10457 3.10457 2 2 2C 0.89543 2 0 1.10457 0 0L 1 0Z" transform="matrix(0.841182 0.540752 -0.540752 0.841182 171.849 99.7334)" fill="#3DBBCF"/>
</g>
<g id="Ellipse 2.10 (Stroke)">
<path fill-rule="evenodd" clip-rule="evenodd" d="M 1 0C 1 0.552285 1.44772 1 2 1C 2.55228 1 3 0.552285 3 0L 4 0C 4 1.10457 3.10457 2 2 2C 0.89543 2 0 1.10457 0 0L 1 0Z" transform="matrix(0.841182 0.540752 -0.540752 0.841182 156.708 90)" fill="#3DBBCF"/>
</g>
</g>
<g id="Group 6.2">
<g id="Ellipse 2 (Stroke)_2">
<path fill-rule="evenodd" clip-rule="evenodd" d="M 1 0C 1 0.552285 1.44772 1 2 1C 2.55228 1 3 0.552285 3 0L 4 0C 4 1.10457 3.10457 2 2 2C 0.89543 2 0 1.10457 0 0L 1 0Z" transform="matrix(0.841182 0.540752 0.540752 -0.841182 146.524 111.39)" fill="#3DBBCF"/>
</g>
<g id="Ellipse 2.1 (Stroke)_2">
<path fill-rule="evenodd" clip-rule="evenodd" d="M 1 0C 1 0.552285 1.44772 1 2 1C 2.55228 1 3 0.552285 3 0L 4 0C 4 1.10457 3.10457 2 2 2C 0.89543 2 0 1.10457 0 0L 1 0Z" transform="matrix(0.841182 0.540752 0.540752 -0.841182 149.047 113.012)" fill="#3DBBCF"/>
</g>
<g id="Ellipse 2.2 (Stroke)_2">
<path fill-rule="evenodd" clip-rule="evenodd" d="M 1 0C 1 0.552285 1.44772 1 2 1C 2.55228 1 3 0.552285 3 0L 4 0C 4 1.10457 3.10457 2 2 2C 0.89543 2 0 1.10457 0 0L 1 0Z" transform="matrix(0.841182 0.540752 0.540752 -0.841182 151.571 114.634)" fill="#3DBBCF"/>
</g>
<g id="Ellipse 2.3 (Stroke)_2">
<path fill-rule="evenodd" clip-rule="evenodd" d="M 1 0C 1 0.552285 1.44772 1 2 1C 2.55228 1 3 0.552285 3 0L 4 0C 4 1.10457 3.10457 2 2 2C 0.89543 2 0 1.10457 0 0L 1 0Z" transform="matrix(0.841182 0.540752 0.540752 -0.841182 154.094 116.257)" fill="#3DBBCF"/>
</g>
<g id="Ellipse 2.4 (Stroke)_2">
<path fill-rule="evenodd" clip-rule="evenodd" d="M 1 0C 1 0.552285 1.44772 1 2 1C 2.55228 1 3 0.552285 3 0L 4 0C 4 1.10457 3.10457 2 2 2C 0.89543 2 0 1.10457 0 0L 1 0Z" transform="matrix(0.841182 0.540752 0.540752 -0.841182 156.618 117.879)" fill="#3DBBCF"/>
</g>
<g id="Ellipse 2.5 (Stroke)_2">
<path fill-rule="evenodd" clip-rule="evenodd" d="M 1 0C 1 0.552285 1.44772 1 2 1C 2.55228 1 3 0.552285 3 0L 4 0C 4 1.10457 3.10457 2 2 2C 0.89543 2 0 1.10457 0 0L 1 0Z" transform="matrix(0.841182 0.540752 0.540752 -0.841182 159.141 119.501)" fill="#3DBBCF"/>
</g>
<g id="Ellipse 2.10 (Stroke)_2">
<path fill-rule="evenodd" clip-rule="evenodd" d="M 1 0C 1 0.552285 1.44772 1 2 1C 2.55228 1 3 0.552285 3 0L 4 0C 4 1.10457 3.10457 2 2 2C 0.89543 2 0 1.10457 0 0L 1 0Z" transform="matrix(0.841182 0.540752 0.540752 -0.841182 144 109.768)" fill="#3DBBCF"/>
</g>
</g>
<g id="Group 6.1">
<g id="Ellipse 2 (Stroke)_3">
<path fill-rule="evenodd" clip-rule="evenodd" d="M 1 0C 1 0.552285 1.44772 1 2 1C 2.55228 1 3 0.552285 3 0L 4 0C 4 1.10457 3.10457 2 2 2C 0.89543 2 0 1.10457 0 0L 1 0Z" transform="matrix(-0.540752 0.841182 -0.841182 -0.540752 173.321 104.841)" fill="#3DBBCF"/>
</g>
<g id="Ellipse 2.1 (Stroke)_3">
<path fill-rule="evenodd" clip-rule="evenodd" d="M 1 0C 1 0.552285 1.44772 1 2 1C 2.55228 1 3 0.552285 3 0L 4 0C 4 1.10457 3.10457 2 2 2C 0.89543 2 0 1.10457 0 0L 1 0Z" transform="matrix(-0.540752 0.841182 -0.841182 -0.540752 171.699 107.364)" fill="#3DBBCF"/>
</g>
<g id="Ellipse 2.2 (Stroke)_3">
<path fill-rule="evenodd" clip-rule="evenodd" d="M 1 0C 1 0.552285 1.44772 1 2 1C 2.55228 1 3 0.552285 3 0L 4 0C 4 1.10457 3.10457 2 2 2C 0.89543 2 0 1.10457 0 0L 1 0Z" transform="matrix(-0.540752 0.841182 -0.841182 -0.540752 170.077 109.888)" fill="#3DBBCF"/>
</g>
<g id="Ellipse 2.3 (Stroke)_3">
<path fill-rule="evenodd" clip-rule="evenodd" d="M 1 0C 1 0.552285 1.44772 1 2 1C 2.55228 1 3 0.552285 3 0L 4 0C 4 1.10457 3.10457 2 2 2C 0.89543 2 0 1.10457 0 0L 1 0Z" transform="matrix(-0.540752 0.841182 -0.841182 -0.540752 168.454 112.412)" fill="#3DBBCF"/>
</g>
<g id="Ellipse 2.4 (Stroke)_3">
<path fill-rule="evenodd" clip-rule="evenodd" d="M 1 0C 1 0.552285 1.44772 1 2 1C 2.55228 1 3 0.552285 3 0L 4 0C 4 1.10457 3.10457 2 2 2C 0.89543 2 0 1.10457 0 0L 1 0Z" transform="matrix(-0.540752 0.841182 -0.841182 -0.540752 166.832 114.935)" fill="#3DBBCF"/>
</g>
<g id="Ellipse 2.5 (Stroke)_3">
<path fill-rule="evenodd" clip-rule="evenodd" d="M 1 0C 1 0.552285 1.44772 1 2 1C 2.55228 1 3 0.552285 3 0L 4 0C 4 1.10457 3.10457 2 2 2C 0.89543 2 0 1.10457 0 0L 1 0Z" transform="matrix(-0.540752 0.841182 -0.841182 -0.540752 165.21 117.458)" fill="#3DBBCF"/>
</g>
<g id="Ellipse 2.10 (Stroke)_3">
<path fill-rule="evenodd" clip-rule="evenodd" d="M 1 0C 1 0.552285 1.44772 1 2 1C 2.55228 1 3 0.552285 3 0L 4 0C 4 1.10457 3.10457 2 2 2C 0.89543 2 0 1.10457 0 0L 1 0Z" transform="matrix(-0.540752 0.841182 -0.841182 -0.540752 174.943 102.317)" fill="#3DBBCF"/>
</g>
</g>
<g id="Group 6.3">
<g id="Ellipse 2 (Stroke)_4">
<path fill-rule="evenodd" clip-rule="evenodd" d="M 1 0C 1 0.552285 1.44772 1 2 1C 2.55228 1 3 0.552285 3 0L 4 0C 4 1.10457 3.10457 2 2 2C 0.89543 2 0 1.10457 0 0L 1 0Z" transform="matrix(-0.540752 0.841182 0.841182 0.540752 154.815 92.9438)" fill="#3DBBCF"/>
</g>
<g id="Ellipse 2.1 (Stroke)_4">
<path fill-rule="evenodd" clip-rule="evenodd" d="M 1 0C 1 0.552285 1.44772 1 2 1C 2.55228 1 3 0.552285 3 0L 4 0C 4 1.10457 3.10457 2 2 2C 0.89543 2 0 1.10457 0 0L 1 0Z" transform="matrix(-0.540752 0.841182 0.841182 0.540752 153.193 95.4673)" fill="#3DBBCF"/>
</g>
<g id="Ellipse 2.2 (Stroke)_4">
<path fill-rule="evenodd" clip-rule="evenodd" d="M 1 0C 1 0.552285 1.44772 1 2 1C 2.55228 1 3 0.552285 3 0L 4 0C 4 1.10457 3.10457 2 2 2C 0.89543 2 0 1.10457 0 0L 1 0Z" transform="matrix(-0.540752 0.841182 0.841182 0.540752 151.571 97.9912)" fill="#3DBBCF"/>
</g>
<g id="Ellipse 2.3 (Stroke)_4">
<path fill-rule="evenodd" clip-rule="evenodd" d="M 1 0C 1 0.552285 1.44772 1 2 1C 2.55228 1 3 0.552285 3 0L 4 0C 4 1.10457 3.10457 2 2 2C 0.89543 2 0 1.10457 0 0L 1 0Z" transform="matrix(-0.540752 0.841182 0.841182 0.540752 149.948 100.515)" fill="#3DBBCF"/>
</g>
<g id="Ellipse 2.4 (Stroke)_4">
<path fill-rule="evenodd" clip-rule="evenodd" d="M 1 0C 1 0.552285 1.44772 1 2 1C 2.55228 1 3 0.552285 3 0L 4 0C 4 1.10457 3.10457 2 2 2C 0.89543 2 0 1.10457 0 0L 1 0Z" transform="matrix(-0.540752 0.841182 0.841182 0.540752 148.326 103.038)" fill="#3DBBCF"/>
</g>
<g id="Ellipse 2.5 (Stroke)_4">
<path fill-rule="evenodd" clip-rule="evenodd" d="M 1 0C 1 0.552285 1.44772 1 2 1C 2.55228 1 3 0.552285 3 0L 4 0C 4 1.10457 3.10457 2 2 2C 0.89543 2 0 1.10457 0 0L 1 0Z" transform="matrix(-0.540752 0.841182 0.841182 0.540752 146.704 105.562)" fill="#3DBBCF"/>
</g>
<g id="Ellipse 2.10 (Stroke)_4">
<path fill-rule="evenodd" clip-rule="evenodd" d="M 1 0C 1 0.552285 1.44772 1 2 1C 2.55228 1 3 0.552285 3 0L 4 0C 4 1.10457 3.10457 2 2 2C 0.89543 2 0 1.10457 0 0L 1 0Z" transform="matrix(-0.540752 0.841182 0.841182 0.540752 156.437 90.4204)" fill="#3DBBCF"/>
</g>
</g>
<g id="Rectangle 3 (Stroke)">
<path fill-rule="evenodd" clip-rule="evenodd" d="M 13.5 1.5L 1.5 1.5L 1.5 14.5L 13.5 14.5L 13.5 1.5ZM 0 0L 0 16L 15 16L 15 0L 0 0Z" transform="matrix(0.841182 0.540752 -0.540752 0.841182 157.489 95.2573)" fill="#3DBBCF"/>
</g>
<g id="Vector 2 (Stroke)">
<path fill-rule="evenodd" clip-rule="evenodd" d="M 9.35994 0L 13.7955 4.99005L 13.0481 5.65441L 9.48372 1.64446L 6.78148 5.80176L 10.3218 10.5222L 9.52183 11.1222L 3.95556 3.70054L 0.843661 8.59067L 0 8.05379L 3.8881 1.94392L 6.14254 4.94984L 9.35994 0Z" transform="matrix(0.841182 0.540752 -0.540752 0.841182 155.716 99.0845)" fill="#3DBBCF"/>
</g>
</g>
<g id="Group 7.9">
<g id="Group 6_2">
<g id="Ellipse 2 (Stroke)_5">
<path fill-rule="evenodd" clip-rule="evenodd" d="M 1 0C 1 0.552285 1.44772 1 2 1C 2.55228 1 3 0.552285 3 0L 4 0C 4 1.10457 3.10457 2 2 2C 0.89543 2 0 1.10457 0 0L 1 0Z" transform="matrix(0.841182 0.540752 -0.540752 0.841182 255.838 159.704)" fill="#3DBBCF"/>
</g>
<g id="Ellipse 2.1 (Stroke)_5">
<path fill-rule="evenodd" clip-rule="evenodd" d="M 1 0C 1 0.552285 1.44772 1 2 1C 2.55228 1 3 0.552285 3 0L 4 0C 4 1.10457 3.10457 2 2 2C 0.89543 2 0 1.10457 0 0L 1 0Z" transform="matrix(0.841182 0.540752 -0.540752 0.841182 258.362 161.327)" fill="#3DBBCF"/>
</g>
<g id="Ellipse 2.2 (Stroke)_5">
<path fill-rule="evenodd" clip-rule="evenodd" d="M 1 0C 1 0.552285 1.44772 1 2 1C 2.55228 1 3 0.552285 3 0L 4 0C 4 1.10457 3.10457 2 2 2C 0.89543 2 0 1.10457 0 0L 1 0Z" transform="matrix(0.841182 0.540752 -0.540752 0.841182 260.885 162.949)" fill="#3DBBCF"/>
</g>
<g id="Ellipse 2.3 (Stroke)_5">
<path fill-rule="evenodd" clip-rule="evenodd" d="M 1 0C 1 0.552285 1.44772 1 2 1C 2.55228 1 3 0.552285 3 0L 4 0C 4 1.10457 3.10457 2 2 2C 0.89543 2 0 1.10457 0 0L 1 0Z" transform="matrix(0.841182 0.540752 -0.540752 0.841182 263.409 164.571)" fill="#3DBBCF"/>
</g>
<g id="Ellipse 2.4 (Stroke)_5">
<path fill-rule="evenodd" clip-rule="evenodd" d="M 1 0C 1 0.552285 1.44772 1 2 1C 2.55228 1 3 0.552285 3 0L 4 0C 4 1.10457 3.10457 2 2 2C 0.89543 2 0 1.10457 0 0L 1 0Z" transform="matrix(0.841182 0.540752 -0.540752 0.841182 265.932 166.193)" fill="#3DBBCF"/>
</g>
<g id="Ellipse 2.5 (Stroke)_5">
<path fill-rule="evenodd" clip-rule="evenodd" d="M 1 0C 1 0.552285 1.44772 1 2 1C 2.55228 1 3 0.552285 3 0L 4 0C 4 1.10457 3.10457 2 2 2C 0.89543 2 0 1.10457 0 0L 1 0Z" transform="matrix(0.841182 0.540752 -0.540752 0.841182 268.456 167.815)" fill="#3DBBCF"/>
</g>
<g id="Ellipse 2.10 (Stroke)_5">
<path fill-rule="evenodd" clip-rule="evenodd" d="M 1 0C 1 0.552285 1.44772 1 2 1C 2.55228 1 3 0.552285 3 0L 4 0C 4 1.10457 3.10457 2 2 2C 0.89543 2 0 1.10457 0 0L 1 0Z" transform="matrix(0.841182 0.540752 -0.540752 0.841182 253.315 158.082)" fill="#3DBBCF"/>
</g>
</g>
<g id="Group 6.2_2">
<g id="Ellipse 2 (Stroke)_6">
<path fill-rule="evenodd" clip-rule="evenodd" d="M 1 0C 1 0.552285 1.44772 1 2 1C 2.55228 1 3 0.552285 3 0L 4 0C 4 1.10457 3.10457 2 2 2C 0.89543 2 0 1.10457 0 0L 1 0Z" transform="matrix(0.841182 0.540752 0.540752 -0.841182 243.13 179.472)" fill="#3DBBCF"/>
</g>
<g id="Ellipse 2.1 (Stroke)_6">
<path fill-rule="evenodd" clip-rule="evenodd" d="M 1 0C 1 0.552285 1.44772 1 2 1C 2.55228 1 3 0.552285 3 0L 4 0C 4 1.10457 3.10457 2 2 2C 0.89543 2 0 1.10457 0 0L 1 0Z" transform="matrix(0.841182 0.540752 0.540752 -0.841182 245.654 181.094)" fill="#3DBBCF"/>
</g>
<g id="Ellipse 2.2 (Stroke)_6">
<path fill-rule="evenodd" clip-rule="evenodd" d="M 1 0C 1 0.552285 1.44772 1 2 1C 2.55228 1 3 0.552285 3 0L 4 0C 4 1.10457 3.10457 2 2 2C 0.89543 2 0 1.10457 0 0L 1 0Z" transform="matrix(0.841182 0.540752 0.540752 -0.841182 248.178 182.716)" fill="#3DBBCF"/>
</g>
<g id="Ellipse 2.3 (Stroke)_6">
<path fill-rule="evenodd" clip-rule="evenodd" d="M 1 0C 1 0.552285 1.44772 1 2 1C 2.55228 1 3 0.552285 3 0L 4 0C 4 1.10457 3.10457 2 2 2C 0.89543 2 0 1.10457 0 0L 1 0Z" transform="matrix(0.841182 0.540752 0.540752 -0.841182 250.701 184.339)" fill="#3DBBCF"/>
</g>
<g id="Ellipse 2.4 (Stroke)_6">
<path fill-rule="evenodd" clip-rule="evenodd" d="M 1 0C 1 0.552285 1.44772 1 2 1C 2.55228 1 3 0.552285 3 0L 4 0C 4 1.10457 3.10457 2 2 2C 0.89543 2 0 1.10457 0 0L 1 0Z" transform="matrix(0.841182 0.540752 0.540752 -0.841182 253.225 185.961)" fill="#3DBBCF"/>
</g>
<g id="Ellipse 2.5 (Stroke)_6">
<path fill-rule="evenodd" clip-rule="evenodd" d="M 1 0C 1 0.552285 1.44772 1 2 1C 2.55228 1 3 0.552285 3 0L 4 0C 4 1.10457 3.10457 2 2 2C 0.89543 2 0 1.10457 0 0L 1 0Z" transform="matrix(0.841182 0.540752 0.540752 -0.841182 255.748 187.583)" fill="#3DBBCF"/>
</g>
<g id="Ellipse 2.10 (Stroke)_6">
<path fill-rule="evenodd" clip-rule="evenodd" d="M 1 0C 1 0.552285 1.44772 1 2 1C 2.55228 1 3 0.552285 3 0L 4 0C 4 1.10457 3.10457 2 2 2C 0.89543 2 0 1.10457 0 0L 1 0Z" transform="matrix(0.841182 0.540752 0.540752 -0.841182 240.607 177.85)" fill="#3DBBCF"/>
</g>
</g>
<g id="Group 6.1_2">
<g id="Ellipse 2 (Stroke)_7">
<path fill-rule="evenodd" clip-rule="evenodd" d="M 1 0C 1 0.552285 1.44772 1 2 1C 2.55228 1 3 0.552285 3 0L 4 0C 4 1.10457 3.10457 2 2 2C 0.89543 2 0 1.10457 0 0L 1 0Z" transform="matrix(-0.540752 0.841182 -0.841182 -0.540752 269.928 172.923)" fill="#3DBBCF"/>
</g>
<g id="Ellipse 2.1 (Stroke)_7">
<path fill-rule="evenodd" clip-rule="evenodd" d="M 1 0C 1 0.552285 1.44772 1 2 1C 2.55228 1 3 0.552285 3 0L 4 0C 4 1.10457 3.10457 2 2 2C 0.89543 2 0 1.10457 0 0L 1 0Z" transform="matrix(-0.540752 0.841182 -0.841182 -0.540752 268.306 175.446)" fill="#3DBBCF"/>
</g>
<g id="Ellipse 2.2 (Stroke)_7">
<path fill-rule="evenodd" clip-rule="evenodd" d="M 1 0C 1 0.552285 1.44772 1 2 1C 2.55228 1 3 0.552285 3 0L 4 0C 4 1.10457 3.10457 2 2 2C 0.89543 2 0 1.10457 0 0L 1 0Z" transform="matrix(-0.540752 0.841182 -0.841182 -0.540752 266.683 177.97)" fill="#3DBBCF"/>
</g>
<g id="Ellipse 2.3 (Stroke)_7">
<path fill-rule="evenodd" clip-rule="evenodd" d="M 1 0C 1 0.552285 1.44772 1 2 1C 2.55228 1 3 0.552285 3 0L 4 0C 4 1.10457 3.10457 2 2 2C 0.89543 2 0 1.10457 0 0L 1 0Z" transform="matrix(-0.540752 0.841182 -0.841182 -0.540752 265.061 180.494)" fill="#3DBBCF"/>
</g>
<g id="Ellipse 2.4 (Stroke)_7">
<path fill-rule="evenodd" clip-rule="evenodd" d="M 1 0C 1 0.552285 1.44772 1 2 1C 2.55228 1 3 0.552285 3 0L 4 0C 4 1.10457 3.10457 2 2 2C 0.89543 2 0 1.10457 0 0L 1 0Z" transform="matrix(-0.540752 0.841182 -0.841182 -0.540752 263.439 183.017)" fill="#3DBBCF"/>
</g>
<g id="Ellipse 2.5 (Stroke)_7">
<path fill-rule="evenodd" clip-rule="evenodd" d="M 1 0C 1 0.552285 1.44772 1 2 1C 2.55228 1 3 0.552285 3 0L 4 0C 4 1.10457 3.10457 2 2 2C 0.89543 2 0 1.10457 0 0L 1 0Z" transform="matrix(-0.540752 0.841182 -0.841182 -0.540752 261.817 185.541)" fill="#3DBBCF"/>
</g>
<g id="Ellipse 2.10 (Stroke)_7">
<path fill-rule="evenodd" clip-rule="evenodd" d="M 1 0C 1 0.552285 1.44772 1 2 1C 2.55228 1 3 0.552285 3 0L 4 0C 4 1.10457 3.10457 2 2 2C 0.89543 2 0 1.10457 0 0L 1 0Z" transform="matrix(-0.540752 0.841182 -0.841182 -0.540752 271.55 170.399)" fill="#3DBBCF"/>
</g>
</g>
<g id="Group 6.3_2">
<g id="Ellipse 2 (Stroke)_8">
<path fill-rule="evenodd" clip-rule="evenodd" d="M 1 0C 1 0.552285 1.44772 1 2 1C 2.55228 1 3 0.552285 3 0L 4 0C 4 1.10457 3.10457 2 2 2C 0.89543 2 0 1.10457 0 0L 1 0Z" transform="matrix(-0.540752 0.841182 0.841182 0.540752 251.422 161.026)" fill="#3DBBCF"/>
</g>
<g id="Ellipse 2.1 (Stroke)_8">
<path fill-rule="evenodd" clip-rule="evenodd" d="M 1 0C 1 0.552285 1.44772 1 2 1C 2.55228 1 3 0.552285 3 0L 4 0C 4 1.10457 3.10457 2 2 2C 0.89543 2 0 1.10457 0 0L 1 0Z" transform="matrix(-0.540752 0.841182 0.841182 0.540752 249.8 163.549)" fill="#3DBBCF"/>
</g>
<g id="Ellipse 2.2 (Stroke)_8">
<path fill-rule="evenodd" clip-rule="evenodd" d="M 1 0C 1 0.552285 1.44772 1 2 1C 2.55228 1 3 0.552285 3 0L 4 0C 4 1.10457 3.10457 2 2 2C 0.89543 2 0 1.10457 0 0L 1 0Z" transform="matrix(-0.540752 0.841182 0.841182 0.540752 248.177 166.073)" fill="#3DBBCF"/>
</g>
<g id="Ellipse 2.3 (Stroke)_8">
<path fill-rule="evenodd" clip-rule="evenodd" d="M 1 0C 1 0.552285 1.44772 1 2 1C 2.55228 1 3 0.552285 3 0L 4 0C 4 1.10457 3.10457 2 2 2C 0.89543 2 0 1.10457 0 0L 1 0Z" transform="matrix(-0.540752 0.841182 0.841182 0.540752 246.555 168.597)" fill="#3DBBCF"/>
</g>
<g id="Ellipse 2.4 (Stroke)_8">
<path fill-rule="evenodd" clip-rule="evenodd" d="M 1 0C 1 0.552285 1.44772 1 2 1C 2.55228 1 3 0.552285 3 0L 4 0C 4 1.10457 3.10457 2 2 2C 0.89543 2 0 1.10457 0 0L 1 0Z" transform="matrix(-0.540752 0.841182 0.841182 0.540752 244.933 171.12)" fill="#3DBBCF"/>
</g>
<g id="Ellipse 2.5 (Stroke)_8">
<path fill-rule="evenodd" clip-rule="evenodd" d="M 1 0C 1 0.552285 1.44772 1 2 1C 2.55228 1 3 0.552285 3 0L 4 0C 4 1.10457 3.10457 2 2 2C 0.89543 2 0 1.10457 0 0L 1 0Z" transform="matrix(-0.540752 0.841182 0.841182 0.540752 243.311 173.644)" fill="#3DBBCF"/>
</g>
<g id="Ellipse 2.10 (Stroke)_8">
<path fill-rule="evenodd" clip-rule="evenodd" d="M 1 0C 1 0.552285 1.44772 1 2 1C 2.55228 1 3 0.552285 3 0L 4 0C 4 1.10457 3.10457 2 2 2C 0.89543 2 0 1.10457 0 0L 1 0Z" transform="matrix(-0.540752 0.841182 0.841182 0.540752 253.044 158.502)" fill="#3DBBCF"/>
</g>
</g>
<g id="Rectangle 3 (Stroke)_2">
<path fill-rule="evenodd" clip-rule="evenodd" d="M 13.5 1.5L 1.5 1.5L 1.5 14.5L 13.5 14.5L 13.5 1.5ZM 0 0L 0 16L 15 16L 15 0L 0 0Z" transform="matrix(0.841182 0.540752 -0.540752 0.841182 254.096 163.339)" fill="#3DBBCF"/>
</g>
<g id="Vector 2 (Stroke)_2">
<path fill-rule="evenodd" clip-rule="evenodd" d="M 9.35994 0L 13.7955 4.99005L 13.0481 5.65441L 9.48372 1.64446L 6.78148 5.80176L 10.3218 10.5222L 9.52183 11.1222L 3.95556 3.70054L 0.843661 8.59067L 0 8.05379L 3.8881 1.94392L 6.14254 4.94984L 9.35994 0Z" transform="matrix(0.841182 0.540752 -0.540752 0.841182 252.323 167.167)" fill="#3DBBCF"/>
</g>
</g>
<g id="Group 7.10">
<g id="Group 6_3">
<g id="Ellipse 2 (Stroke)_9">
<path fill-rule="evenodd" clip-rule="evenodd" d="M 1 0C 1 0.552285 1.44772 1 2 1C 2.55228 1 3 0.552285 3 0L 4 0C 4 1.10457 3.10457 2 2 2C 0.89543 2 0 1.10457 0 0L 1 0Z" transform="matrix(0.468948 0.883226 -0.883226 0.468948 113.163 162.65)" fill="#3DBBCF"/>
</g>
<g id="Ellipse 2.1 (Stroke)_9">
<path fill-rule="evenodd" clip-rule="evenodd" d="M 1 0C 1 0.552285 1.44772 1 2 1C 2.55228 1 3 0.552285 3 0L 4 0C 4 1.10457 3.10457 2 2 2C 0.89543 2 0 1.10457 0 0L 1 0Z" transform="matrix(0.468948 0.883226 -0.883226 0.468948 114.569 165.299)" fill="#3DBBCF"/>
</g>
<g id="Ellipse 2.2 (Stroke)_9">
<path fill-rule="evenodd" clip-rule="evenodd" d="M 1 0C 1 0.552285 1.44772 1 2 1C 2.55228 1 3 0.552285 3 0L 4 0C 4 1.10457 3.10457 2 2 2C 0.89543 2 0 1.10457 0 0L 1 0Z" transform="matrix(0.468948 0.883226 -0.883226 0.468948 115.976 167.949)" fill="#3DBBCF"/>
</g>
<g id="Ellipse 2.3 (Stroke)_9">
<path fill-rule="evenodd" clip-rule="evenodd" d="M 1 0C 1 0.552285 1.44772 1 2 1C 2.55228 1 3 0.552285 3 0L 4 0C 4 1.10457 3.10457 2 2 2C 0.89543 2 0 1.10457 0 0L 1 0Z" transform="matrix(0.468948 0.883226 -0.883226 0.468948 117.383 170.599)" fill="#3DBBCF"/>
</g>
<g id="Ellipse 2.4 (Stroke)_9">
<path fill-rule="evenodd" clip-rule="evenodd" d="M 1 0C 1 0.552285 1.44772 1 2 1C 2.55228 1 3 0.552285 3 0L 4 0C 4 1.10457 3.10457 2 2 2C 0.89543 2 0 1.10457 0 0L 1 0Z" transform="matrix(0.468948 0.883226 -0.883226 0.468948 118.79 173.249)" fill="#3DBBCF"/>
</g>
<g id="Ellipse 2.5 (Stroke)_9">
<path fill-rule="evenodd" clip-rule="evenodd" d="M 1 0C 1 0.552285 1.44772 1 2 1C 2.55228 1 3 0.552285 3 0L 4 0C 4 1.10457 3.10457 2 2 2C 0.89543 2 0 1.10457 0 0L 1 0Z" transform="matrix(0.468948 0.883226 -0.883226 0.468948 120.197 175.898)" fill="#3DBBCF"/>
</g>
<g id="Ellipse 2.10 (Stroke)_9">
<path fill-rule="evenodd" clip-rule="evenodd" d="M 1 0C 1 0.552285 1.44772 1 2 1C 2.55228 1 3 0.552285 3 0L 4 0C 4 1.10457 3.10457 2 2 2C 0.89543 2 0 1.10457 0 0L 1 0Z" transform="matrix(0.468948 0.883226 -0.883226 0.468948 111.756 160)" fill="#3DBBCF"/>
</g>
</g>
<g id="Group 6.2_3">
<g id="Ellipse 2 (Stroke)_10">
<path fill-rule="evenodd" clip-rule="evenodd" d="M 1 0C 1 0.552285 1.44772 1 2 1C 2.55228 1 3 0.552285 3 0L 4 0C 4 1.10457 3.10457 2 2 2C 0.89543 2 0 1.10457 0 0L 1 0Z" transform="matrix(0.468948 0.883226 0.883226 -0.468948 92.4069 173.67)" fill="#3DBBCF"/>
</g>
<g id="Ellipse 2.1 (Stroke)_10">
<path fill-rule="evenodd" clip-rule="evenodd" d="M 1 0C 1 0.552285 1.44772 1 2 1C 2.55228 1 3 0.552285 3 0L 4 0C 4 1.10457 3.10457 2 2 2C 0.89543 2 0 1.10457 0 0L 1 0Z" transform="matrix(0.468948 0.883226 0.883226 -0.468948 93.8137 176.32)" fill="#3DBBCF"/>
</g>
<g id="Ellipse 2.2 (Stroke)_10">
<path fill-rule="evenodd" clip-rule="evenodd" d="M 1 0C 1 0.552285 1.44772 1 2 1C 2.55228 1 3 0.552285 3 0L 4 0C 4 1.10457 3.10457 2 2 2C 0.89543 2 0 1.10457 0 0L 1 0Z" transform="matrix(0.468948 0.883226 0.883226 -0.468948 95.2205 178.97)" fill="#3DBBCF"/>
</g>
<g id="Ellipse 2.3 (Stroke)_10">
<path fill-rule="evenodd" clip-rule="evenodd" d="M 1 0C 1 0.552285 1.44772 1 2 1C 2.55228 1 3 0.552285 3 0L 4 0C 4 1.10457 3.10457 2 2 2C 0.89543 2 0 1.10457 0 0L 1 0Z" transform="matrix(0.468948 0.883226 0.883226 -0.468948 96.6274 181.619)" fill="#3DBBCF"/>
</g>
<g id="Ellipse 2.4 (Stroke)_10">
<path fill-rule="evenodd" clip-rule="evenodd" d="M 1 0C 1 0.552285 1.44772 1 2 1C 2.55228 1 3 0.552285 3 0L 4 0C 4 1.10457 3.10457 2 2 2C 0.89543 2 0 1.10457 0 0L 1 0Z" transform="matrix(0.468948 0.883226 0.883226 -0.468948 98.0342 184.269)" fill="#3DBBCF"/>
</g>
<g id="Ellipse 2.5 (Stroke)_10">
<path fill-rule="evenodd" clip-rule="evenodd" d="M 1 0C 1 0.552285 1.44772 1 2 1C 2.55228 1 3 0.552285 3 0L 4 0C 4 1.10457 3.10457 2 2 2C 0.89543 2 0 1.10457 0 0L 1 0Z" transform="matrix(0.468948 0.883226 0.883226 -0.468948 99.441 186.918)" fill="#3DBBCF"/>
</g>
<g id="Ellipse 2.10 (Stroke)_10">
<path fill-rule="evenodd" clip-rule="evenodd" d="M 1 0C 1 0.552285 1.44772 1 2 1C 2.55228 1 3 0.552285 3 0L 4 0C 4 1.10457 3.10457 2 2 2C 0.89543 2 0 1.10457 0 0L 1 0Z" transform="matrix(0.468948 0.883226 0.883226 -0.468948 91 171.021)" fill="#3DBBCF"/>
</g>
</g>
<g id="Group 6.1_3">
<g id="Ellipse 2 (Stroke)_11">
<path fill-rule="evenodd" clip-rule="evenodd" d="M 1 0C 1 0.552285 1.44772 1 2 1C 2.55228 1 3 0.552285 3 0L 4 0C 4 1.10457 3.10457 2 2 2C 0.89543 2 0 1.10457 0 0L 1 0Z" transform="matrix(-0.883226 0.468948 -0.468948 -0.883226 118.981 181.072)" fill="#3DBBCF"/>
</g>
<g id="Ellipse 2.1 (Stroke)_11">
<path fill-rule="evenodd" clip-rule="evenodd" d="M 1 0C 1 0.552285 1.44772 1 2 1C 2.55228 1 3 0.552285 3 0L 4 0C 4 1.10457 3.10457 2 2 2C 0.89543 2 0 1.10457 0 0L 1 0Z" transform="matrix(-0.883226 0.468948 -0.468948 -0.883226 116.332 182.479)" fill="#3DBBCF"/>
</g>
<g id="Ellipse 2.2 (Stroke)_11">
<path fill-rule="evenodd" clip-rule="evenodd" d="M 1 0C 1 0.552285 1.44772 1 2 1C 2.55228 1 3 0.552285 3 0L 4 0C 4 1.10457 3.10457 2 2 2C 0.89543 2 0 1.10457 0 0L 1 0Z" transform="matrix(-0.883226 0.468948 -0.468948 -0.883226 113.682 183.886)" fill="#3DBBCF"/>
</g>
<g id="Ellipse 2.3 (Stroke)_11">
<path fill-rule="evenodd" clip-rule="evenodd" d="M 1 0C 1 0.552285 1.44772 1 2 1C 2.55228 1 3 0.552285 3 0L 4 0C 4 1.10457 3.10457 2 2 2C 0.89543 2 0 1.10457 0 0L 1 0Z" transform="matrix(-0.883226 0.468948 -0.468948 -0.883226 111.032 185.293)" fill="#3DBBCF"/>
</g>
<g id="Ellipse 2.4 (Stroke)_11">
<path fill-rule="evenodd" clip-rule="evenodd" d="M 1 0C 1 0.552285 1.44772 1 2 1C 2.55228 1 3 0.552285 3 0L 4 0C 4 1.10457 3.10457 2 2 2C 0.89543 2 0 1.10457 0 0L 1 0Z" transform="matrix(-0.883226 0.468948 -0.468948 -0.883226 108.383 186.7)" fill="#3DBBCF"/>
</g>
<g id="Ellipse 2.5 (Stroke)_11">
<path fill-rule="evenodd" clip-rule="evenodd" d="M 1 0C 1 0.552285 1.44772 1 2 1C 2.55228 1 3 0.552285 3 0L 4 0C 4 1.10457 3.10457 2 2 2C 0.89543 2 0 1.10457 0 0L 1 0Z" transform="matrix(-0.883226 0.468948 -0.468948 -0.883226 105.733 188.106)" fill="#3DBBCF"/>
</g>
<g id="Ellipse 2.10 (Stroke)_11">
<path fill-rule="evenodd" clip-rule="evenodd" d="M 1 0C 1 0.552285 1.44772 1 2 1C 2.55228 1 3 0.552285 3 0L 4 0C 4 1.10457 3.10457 2 2 2C 0.89543 2 0 1.10457 0 0L 1 0Z" transform="matrix(-0.883226 0.468948 -0.468948 -0.883226 121.631 179.666)" fill="#3DBBCF"/>
</g>
</g>
<g id="Group 6.3_3">
<g id="Ellipse 2 (Stroke)_12">
<path fill-rule="evenodd" clip-rule="evenodd" d="M 1 0C 1 0.552285 1.44772 1 2 1C 2.55228 1 3 0.552285 3 0L 4 0C 4 1.10457 3.10457 2 2 2C 0.89543 2 0 1.10457 0 0L 1 0Z" transform="matrix(-0.883226 0.468948 0.468948 0.883226 108.665 161.641)" fill="#3DBBCF"/>
</g>
<g id="Ellipse 2.1 (Stroke)_12">
<path fill-rule="evenodd" clip-rule="evenodd" d="M 1 0C 1 0.552285 1.44772 1 2 1C 2.55228 1 3 0.552285 3 0L 4 0C 4 1.10457 3.10457 2 2 2C 0.89543 2 0 1.10457 0 0L 1 0Z" transform="matrix(-0.883226 0.468948 0.468948 0.883226 106.015 163.048)" fill="#3DBBCF"/>
</g>
<g id="Ellipse 2.2 (Stroke)_12">
<path fill-rule="evenodd" clip-rule="evenodd" d="M 1 0C 1 0.552285 1.44772 1 2 1C 2.55228 1 3 0.552285 3 0L 4 0C 4 1.10457 3.10457 2 2 2C 0.89543 2 0 1.10457 0 0L 1 0Z" transform="matrix(-0.883226 0.468948 0.468948 0.883226 103.365 164.455)" fill="#3DBBCF"/>
</g>
<g id="Ellipse 2.3 (Stroke)_12">
<path fill-rule="evenodd" clip-rule="evenodd" d="M 1 0C 1 0.552285 1.44772 1 2 1C 2.55228 1 3 0.552285 3 0L 4 0C 4 1.10457 3.10457 2 2 2C 0.89543 2 0 1.10457 0 0L 1 0Z" transform="matrix(-0.883226 0.468948 0.468948 0.883226 100.716 165.862)" fill="#3DBBCF"/>
</g>
<g id="Ellipse 2.4 (Stroke)_12">
<path fill-rule="evenodd" clip-rule="evenodd" d="M 1 0C 1 0.552285 1.44772 1 2 1C 2.55228 1 3 0.552285 3 0L 4 0C 4 1.10457 3.10457 2 2 2C 0.89543 2 0 1.10457 0 0L 1 0Z" transform="matrix(-0.883226 0.468948 0.468948 0.883226 98.0658 167.269)" fill="#3DBBCF"/>
</g>
<g id="Ellipse 2.5 (Stroke)_12">
<path fill-rule="evenodd" clip-rule="evenodd" d="M 1 0C 1 0.552285 1.44772 1 2 1C 2.55228 1 3 0.552285 3 0L 4 0C 4 1.10457 3.10457 2 2 2C 0.89543 2 0 1.10457 0 0L 1 0Z" transform="matrix(-0.883226 0.468948 0.468948 0.883226 95.4161 168.675)" fill="#3DBBCF"/>
</g>
<g id="Ellipse 2.10 (Stroke)_12">
<path fill-rule="evenodd" clip-rule="evenodd" d="M 1 0C 1 0.552285 1.44772 1 2 1C 2.55228 1 3 0.552285 3 0L 4 0C 4 1.10457 3.10457 2 2 2C 0.89543 2 0 1.10457 0 0L 1 0Z" transform="matrix(-0.883226 0.468948 0.468948 0.883226 111.314 160.234)" fill="#3DBBCF"/>
</g>
</g>
<g id="Rectangle 3 (Stroke)_3">
<path fill-rule="evenodd" clip-rule="evenodd" d="M 13.5 1.5L 1.5 1.5L 1.5 14.5L 13.5 14.5L 13.5 1.5ZM 0 0L 0 16L 15 16L 15 0L 0 0Z" transform="matrix(0.468948 0.883226 -0.883226 0.468948 109.864 164.967)" fill="#3DBBCF"/>
</g>
<g id="Vector 2 (Stroke)_3">
<path fill-rule="evenodd" clip-rule="evenodd" d="M 9.35994 0L 13.7955 4.99005L 13.0481 5.65441L 9.48372 1.64446L 6.78148 5.80176L 10.3218 10.5222L 9.52183 11.1222L 3.95556 3.70054L 0.843661 8.59067L 0 8.05379L 3.8881 1.94392L 6.14254 4.94984L 9.35994 0Z" transform="matrix(0.468948 0.883226 -0.883226 0.468948 106.445 167.437)" fill="#3DBBCF"/>
</g>
</g>
<g id="Group 7.11">
<g id="Group 6_4">
<g id="Ellipse 2 (Stroke)_13">
<path fill-rule="evenodd" clip-rule="evenodd" d="M 1 0C 1 0.552285 1.44772 1 2 1C 2.55228 1 3 0.552285 3 0L 4 0C 4 1.10457 3.10457 2 2 2C 0.89543 2 0 1.10457 0 0L 1 0Z" transform="matrix(0.837788 -0.545995 0.545995 0.837788 73.5133 55.3735)" fill="#3DBBCF"/>
</g>
<g id="Ellipse 2.1 (Stroke)_13">
<path fill-rule="evenodd" clip-rule="evenodd" d="M 1 0C 1 0.552285 1.44772 1 2 1C 2.55228 1 3 0.552285 3 0L 4 0C 4 1.10457 3.10457 2 2 2C 0.89543 2 0 1.10457 0 0L 1 0Z" transform="matrix(0.837788 -0.545995 0.545995 0.837788 76.0267 53.7358)" fill="#3DBBCF"/>
</g>
<g id="Ellipse 2.2 (Stroke)_13">
<path fill-rule="evenodd" clip-rule="evenodd" d="M 1 0C 1 0.552285 1.44772 1 2 1C 2.55228 1 3 0.552285 3 0L 4 0C 4 1.10457 3.10457 2 2 2C 0.89543 2 0 1.10457 0 0L 1 0Z" transform="matrix(0.837788 -0.545995 0.545995 0.837788 78.54 52.0977)" fill="#3DBBCF"/>
</g>
<g id="Ellipse 2.3 (Stroke)_13">
<path fill-rule="evenodd" clip-rule="evenodd" d="M 1 0C 1 0.552285 1.44772 1 2 1C 2.55228 1 3 0.552285 3 0L 4 0C 4 1.10457 3.10457 2 2 2C 0.89543 2 0 1.10457 0 0L 1 0Z" transform="matrix(0.837788 -0.545995 0.545995 0.837788 81.0534 50.46)" fill="#3DBBCF"/>
</g>
<g id="Ellipse 2.4 (Stroke)_13">
<path fill-rule="evenodd" clip-rule="evenodd" d="M 1 0C 1 0.552285 1.44772 1 2 1C 2.55228 1 3 0.552285 3 0L 4 0C 4 1.10457 3.10457 2 2 2C 0.89543 2 0 1.10457 0 0L 1 0Z" transform="matrix(0.837788 -0.545995 0.545995 0.837788 83.5668 48.8218)" fill="#3DBBCF"/>
</g>
<g id="Ellipse 2.5 (Stroke)_13">
<path fill-rule="evenodd" clip-rule="evenodd" d="M 1 0C 1 0.552285 1.44772 1 2 1C 2.55228 1 3 0.552285 3 0L 4 0C 4 1.10457 3.10457 2 2 2C 0.89543 2 0 1.10457 0 0L 1 0Z" transform="matrix(0.837788 -0.545995 0.545995 0.837788 86.0801 47.1836)" fill="#3DBBCF"/>
</g>
<g id="Ellipse 2.10 (Stroke)_13">
<path fill-rule="evenodd" clip-rule="evenodd" d="M 1 0C 1 0.552285 1.44772 1 2 1C 2.55228 1 3 0.552285 3 0L 4 0C 4 1.10457 3.10457 2 2 2C 0.89543 2 0 1.10457 0 0L 1 0Z" transform="matrix(0.837788 -0.545995 0.545995 0.837788 70.9999 57.0117)" fill="#3DBBCF"/>
</g>
</g>
<g id="Group 6.2_4">
<g id="Ellipse 2 (Stroke)_14">
<path fill-rule="evenodd" clip-rule="evenodd" d="M 1 0C 1 0.552285 1.44772 1 2 1C 2.55228 1 3 0.552285 3 0L 4 0C 4 1.10457 3.10457 2 2 2C 0.89543 2 0 1.10457 0 0L 1 0Z" transform="matrix(0.837788 -0.545995 -0.545995 -0.837788 86.3442 75.0615)" fill="#3DBBCF"/>
</g>
<g id="Ellipse 2.1 (Stroke)_14">
<path fill-rule="evenodd" clip-rule="evenodd" d="M 1 0C 1 0.552285 1.44772 1 2 1C 2.55228 1 3 0.552285 3 0L 4 0C 4 1.10457 3.10457 2 2 2C 0.89543 2 0 1.10457 0 0L 1 0Z" transform="matrix(0.837788 -0.545995 -0.545995 -0.837788 88.8575 73.4238)" fill="#3DBBCF"/>
</g>
<g id="Ellipse 2.2 (Stroke)_14">
<path fill-rule="evenodd" clip-rule="evenodd" d="M 1 0C 1 0.552285 1.44772 1 2 1C 2.55228 1 3 0.552285 3 0L 4 0C 4 1.10457 3.10457 2 2 2C 0.89543 2 0 1.10457 0 0L 1 0Z" transform="matrix(0.837788 -0.545995 -0.545995 -0.837788 91.3709 71.7856)" fill="#3DBBCF"/>
</g>
<g id="Ellipse 2.3 (Stroke)_14">
<path fill-rule="evenodd" clip-rule="evenodd" d="M 1 0C 1 0.552285 1.44772 1 2 1C 2.55228 1 3 0.552285 3 0L 4 0C 4 1.10457 3.10457 2 2 2C 0.89543 2 0 1.10457 0 0L 1 0Z" transform="matrix(0.837788 -0.545995 -0.545995 -0.837788 93.8843 70.1479)" fill="#3DBBCF"/>
</g>
<g id="Ellipse 2.4 (Stroke)_14">
<path fill-rule="evenodd" clip-rule="evenodd" d="M 1 0C 1 0.552285 1.44772 1 2 1C 2.55228 1 3 0.552285 3 0L 4 0C 4 1.10457 3.10457 2 2 2C 0.89543 2 0 1.10457 0 0L 1 0Z" transform="matrix(0.837788 -0.545995 -0.545995 -0.837788 96.3976 68.5098)" fill="#3DBBCF"/>
</g>
<g id="Ellipse 2.5 (Stroke)_14">
<path fill-rule="evenodd" clip-rule="evenodd" d="M 1 0C 1 0.552285 1.44772 1 2 1C 2.55228 1 3 0.552285 3 0L 4 0C 4 1.10457 3.10457 2 2 2C 0.89543 2 0 1.10457 0 0L 1 0Z" transform="matrix(0.837788 -0.545995 -0.545995 -0.837788 98.911 66.8716)" fill="#3DBBCF"/>
</g>
<g id="Ellipse 2.10 (Stroke)_14">
<path fill-rule="evenodd" clip-rule="evenodd" d="M 1 0C 1 0.552285 1.44772 1 2 1C 2.55228 1 3 0.552285 3 0L 4 0C 4 1.10457 3.10457 2 2 2C 0.89543 2 0 1.10457 0 0L 1 0Z" transform="matrix(0.837788 -0.545995 -0.545995 -0.837788 83.8308 76.6997)" fill="#3DBBCF"/>
</g>
</g>
<g id="Group 6.1_4">
<g id="Ellipse 2 (Stroke)_15">
<path fill-rule="evenodd" clip-rule="evenodd" d="M 1 0C 1 0.552285 1.44772 1 2 1C 2.55228 1 3 0.552285 3 0L 4 0C 4 1.10457 3.10457 2 2 2C 0.89543 2 0 1.10457 0 0L 1 0Z" transform="matrix(0.545995 0.837788 -0.837788 0.545995 91.3423 47.9321)" fill="#3DBBCF"/>
</g>
<g id="Ellipse 2.1 (Stroke)_15">
<path fill-rule="evenodd" clip-rule="evenodd" d="M 1 0C 1 0.552285 1.44772 1 2 1C 2.55228 1 3 0.552285 3 0L 4 0C 4 1.10457 3.10457 2 2 2C 0.89543 2 0 1.10457 0 0L 1 0Z" transform="matrix(0.545995 0.837788 -0.837788 0.545995 92.9803 50.4458)" fill="#3DBBCF"/>
</g>
<g id="Ellipse 2.2 (Stroke)_15">
<path fill-rule="evenodd" clip-rule="evenodd" d="M 1 0C 1 0.552285 1.44772 1 2 1C 2.55228 1 3 0.552285 3 0L 4 0C 4 1.10457 3.10457 2 2 2C 0.89543 2 0 1.10457 0 0L 1 0Z" transform="matrix(0.545995 0.837788 -0.837788 0.545995 94.6182 52.959)" fill="#3DBBCF"/>
</g>
<g id="Ellipse 2.3 (Stroke)_15">
<path fill-rule="evenodd" clip-rule="evenodd" d="M 1 0C 1 0.552285 1.44772 1 2 1C 2.55228 1 3 0.552285 3 0L 4 0C 4 1.10457 3.10457 2 2 2C 0.89543 2 0 1.10457 0 0L 1 0Z" transform="matrix(0.545995 0.837788 -0.837788 0.545995 96.2562 55.4722)" fill="#3DBBCF"/>
</g>
<g id="Ellipse 2.4 (Stroke)_15">
<path fill-rule="evenodd" clip-rule="evenodd" d="M 1 0C 1 0.552285 1.44772 1 2 1C 2.55228 1 3 0.552285 3 0L 4 0C 4 1.10457 3.10457 2 2 2C 0.89543 2 0 1.10457 0 0L 1 0Z" transform="matrix(0.545995 0.837788 -0.837788 0.545995 97.8942 57.9858)" fill="#3DBBCF"/>
</g>
<g id="Ellipse 2.5 (Stroke)_15">
<path fill-rule="evenodd" clip-rule="evenodd" d="M 1 0C 1 0.552285 1.44772 1 2 1C 2.55228 1 3 0.552285 3 0L 4 0C 4 1.10457 3.10457 2 2 2C 0.89543 2 0 1.10457 0 0L 1 0Z" transform="matrix(0.545995 0.837788 -0.837788 0.545995 99.5322 60.499)" fill="#3DBBCF"/>
</g>
<g id="Ellipse 2.10 (Stroke)_15">
<path fill-rule="evenodd" clip-rule="evenodd" d="M 1 0C 1 0.552285 1.44772 1 2 1C 2.55228 1 3 0.552285 3 0L 4 0C 4 1.10457 3.10457 2 2 2C 0.89543 2 0 1.10457 0 0L 1 0Z" transform="matrix(0.545995 0.837788 -0.837788 0.545995 89.7043 45.4189)" fill="#3DBBCF"/>
</g>
</g>
<g id="Group 6.3_4">
<g id="Ellipse 2 (Stroke)_16">
<path fill-rule="evenodd" clip-rule="evenodd" d="M 1 0C 1 0.552285 1.44772 1 2 1C 2.55228 1 3 0.552285 3 0L 4 0C 4 1.10457 3.10457 2 2 2C 0.89543 2 0 1.10457 0 0L 1 0Z" transform="matrix(0.545995 0.837788 0.837788 -0.545995 72.9109 59.9438)" fill="#3DBBCF"/>
</g>
<g id="Ellipse 2.1 (Stroke)_16">
<path fill-rule="evenodd" clip-rule="evenodd" d="M 1 0C 1 0.552285 1.44772 1 2 1C 2.55228 1 3 0.552285 3 0L 4 0C 4 1.10457 3.10457 2 2 2C 0.89543 2 0 1.10457 0 0L 1 0Z" transform="matrix(0.545995 0.837788 0.837788 -0.545995 74.549 62.4575)" fill="#3DBBCF"/>
</g>
<g id="Ellipse 2.2 (Stroke)_16">
<path fill-rule="evenodd" clip-rule="evenodd" d="M 1 0C 1 0.552285 1.44772 1 2 1C 2.55228 1 3 0.552285 3 0L 4 0C 4 1.10457 3.10457 2 2 2C 0.89543 2 0 1.10457 0 0L 1 0Z" transform="matrix(0.545995 0.837788 0.837788 -0.545995 76.1869 64.9707)" fill="#3DBBCF"/>
</g>
<g id="Ellipse 2.3 (Stroke)_16">
<path fill-rule="evenodd" clip-rule="evenodd" d="M 1 0C 1 0.552285 1.44772 1 2 1C 2.55228 1 3 0.552285 3 0L 4 0C 4 1.10457 3.10457 2 2 2C 0.89543 2 0 1.10457 0 0L 1 0Z" transform="matrix(0.545995 0.837788 0.837788 -0.545995 77.8249 67.4839)" fill="#3DBBCF"/>
</g>
<g id="Ellipse 2.4 (Stroke)_16">
<path fill-rule="evenodd" clip-rule="evenodd" d="M 1 0C 1 0.552285 1.44772 1 2 1C 2.55228 1 3 0.552285 3 0L 4 0C 4 1.10457 3.10457 2 2 2C 0.89543 2 0 1.10457 0 0L 1 0Z" transform="matrix(0.545995 0.837788 0.837788 -0.545995 79.4629 69.9976)" fill="#3DBBCF"/>
</g>
<g id="Ellipse 2.5 (Stroke)_16">
<path fill-rule="evenodd" clip-rule="evenodd" d="M 1 0C 1 0.552285 1.44772 1 2 1C 2.55228 1 3 0.552285 3 0L 4 0C 4 1.10457 3.10457 2 2 2C 0.89543 2 0 1.10457 0 0L 1 0Z" transform="matrix(0.545995 0.837788 0.837788 -0.545995 81.1009 72.5107)" fill="#3DBBCF"/>
</g>
<g id="Ellipse 2.10 (Stroke)_16">
<path fill-rule="evenodd" clip-rule="evenodd" d="M 1 0C 1 0.552285 1.44772 1 2 1C 2.55228 1 3 0.552285 3 0L 4 0C 4 1.10457 3.10457 2 2 2C 0.89543 2 0 1.10457 0 0L 1 0Z" transform="matrix(0.545995 0.837788 0.837788 -0.545995 71.2729 57.4307)" fill="#3DBBCF"/>
</g>
</g>
<g id="Rectangle 3 (Stroke)_4">
<path fill-rule="evenodd" clip-rule="evenodd" d="M 13.5 1.5L 1.5 1.5L 1.5 14.5L 13.5 14.5L 13.5 1.5ZM 0 0L 0 16L 15 16L 15 0L 0 0Z" transform="matrix(0.837788 -0.545995 0.545995 0.837788 76.1161 58.4517)" fill="#3DBBCF"/>
</g>
<g id="Vector 2 (Stroke)_4">
<path fill-rule="evenodd" clip-rule="evenodd" d="M 9.35994 0L 13.7955 4.99005L 13.0481 5.65441L 9.48372 1.64446L 6.78148 5.80176L 10.3218 10.5222L 9.52183 11.1222L 3.95556 3.70054L 0.843661 8.59067L 0 8.05379L 3.8881 1.94392L 6.14254 4.94984L 9.35994 0Z" transform="matrix(0.837788 -0.545995 0.545995 0.837788 78.8816 61.6362)" fill="#3DBBCF"/>
</g>
</g>
<g id="Group 7.12">
<g id="Group 6_5">
<g id="Ellipse 2 (Stroke)_17">
<path fill-rule="evenodd" clip-rule="evenodd" d="M 1 0C 1 0.552285 1.44772 1 2 1C 2.55228 1 3 0.552285 3 0L 4 0C 4 1.10457 3.10457 2 2 2C 0.89543 2 0 1.10457 0 0L 1 0Z" transform="matrix(0.837788 -0.545995 0.545995 0.837788 198.513 10.3735)" fill="#3DBBCF"/>
</g>
<g id="Ellipse 2.1 (Stroke)_17">
<path fill-rule="evenodd" clip-rule="evenodd" d="M 1 0C 1 0.552285 1.44772 1 2 1C 2.55228 1 3 0.552285 3 0L 4 0C 4 1.10457 3.10457 2 2 2C 0.89543 2 0 1.10457 0 0L 1 0Z" transform="matrix(0.837788 -0.545995 0.545995 0.837788 201.027 8.73584)" fill="#3DBBCF"/>
</g>
<g id="Ellipse 2.2 (Stroke)_17">
<path fill-rule="evenodd" clip-rule="evenodd" d="M 1 0C 1 0.552285 1.44772 1 2 1C 2.55228 1 3 0.552285 3 0L 4 0C 4 1.10457 3.10457 2 2 2C 0.89543 2 0 1.10457 0 0L 1 0Z" transform="matrix(0.837788 -0.545995 0.545995 0.837788 203.54 7.09766)" fill="#3DBBCF"/>
</g>
<g id="Ellipse 2.3 (Stroke)_17">
<path fill-rule="evenodd" clip-rule="evenodd" d="M 1 0C 1 0.552285 1.44772 1 2 1C 2.55228 1 3 0.552285 3 0L 4 0C 4 1.10457 3.10457 2 2 2C 0.89543 2 0 1.10457 0 0L 1 0Z" transform="matrix(0.837788 -0.545995 0.545995 0.837788 206.053 5.45996)" fill="#3DBBCF"/>
</g>
<g id="Ellipse 2.4 (Stroke)_17">
<path fill-rule="evenodd" clip-rule="evenodd" d="M 1 0C 1 0.552285 1.44772 1 2 1C 2.55228 1 3 0.552285 3 0L 4 0C 4 1.10457 3.10457 2 2 2C 0.89543 2 0 1.10457 0 0L 1 0Z" transform="matrix(0.837788 -0.545995 0.545995 0.837788 208.567 3.82178)" fill="#3DBBCF"/>
</g>
<g id="Ellipse 2.5 (Stroke)_17">
<path fill-rule="evenodd" clip-rule="evenodd" d="M 1 0C 1 0.552285 1.44772 1 2 1C 2.55228 1 3 0.552285 3 0L 4 0C 4 1.10457 3.10457 2 2 2C 0.89543 2 0 1.10457 0 0L 1 0Z" transform="matrix(0.837788 -0.545995 0.545995 0.837788 211.08 2.18359)" fill="#3DBBCF"/>
</g>
<g id="Ellipse 2.10 (Stroke)_17">
<path fill-rule="evenodd" clip-rule="evenodd" d="M 1 0C 1 0.552285 1.44772 1 2 1C 2.55228 1 3 0.552285 3 0L 4 0C 4 1.10457 3.10457 2 2 2C 0.89543 2 0 1.10457 0 0L 1 0Z" transform="matrix(0.837788 -0.545995 0.545995 0.837788 196 12.0117)" fill="#3DBBCF"/>
</g>
</g>
<g id="Group 6.2_5">
<g id="Ellipse 2 (Stroke)_18">
<path fill-rule="evenodd" clip-rule="evenodd" d="M 1 0C 1 0.552285 1.44772 1 2 1C 2.55228 1 3 0.552285 3 0L 4 0C 4 1.10457 3.10457 2 2 2C 0.89543 2 0 1.10457 0 0L 1 0Z" transform="matrix(0.837788 -0.545995 -0.545995 -0.837788 211.344 30.0615)" fill="#3DBBCF"/>
</g>
<g id="Ellipse 2.1 (Stroke)_18">
<path fill-rule="evenodd" clip-rule="evenodd" d="M 1 0C 1 0.552285 1.44772 1 2 1C 2.55228 1 3 0.552285 3 0L 4 0C 4 1.10457 3.10457 2 2 2C 0.89543 2 0 1.10457 0 0L 1 0Z" transform="matrix(0.837788 -0.545995 -0.545995 -0.837788 213.858 28.4238)" fill="#3DBBCF"/>
</g>
<g id="Ellipse 2.2 (Stroke)_18">
<path fill-rule="evenodd" clip-rule="evenodd" d="M 1 0C 1 0.552285 1.44772 1 2 1C 2.55228 1 3 0.552285 3 0L 4 0C 4 1.10457 3.10457 2 2 2C 0.89543 2 0 1.10457 0 0L 1 0Z" transform="matrix(0.837788 -0.545995 -0.545995 -0.837788 216.371 26.7856)" fill="#3DBBCF"/>
</g>
<g id="Ellipse 2.3 (Stroke)_18">
<path fill-rule="evenodd" clip-rule="evenodd" d="M 1 0C 1 0.552285 1.44772 1 2 1C 2.55228 1 3 0.552285 3 0L 4 0C 4 1.10457 3.10457 2 2 2C 0.89543 2 0 1.10457 0 0L 1 0Z" transform="matrix(0.837788 -0.545995 -0.545995 -0.837788 218.884 25.1479)" fill="#3DBBCF"/>
</g>
<g id="Ellipse 2.4 (Stroke)_18">
<path fill-rule="evenodd" clip-rule="evenodd" d="M 1 0C 1 0.552285 1.44772 1 2 1C 2.55228 1 3 0.552285 3 0L 4 0C 4 1.10457 3.10457 2 2 2C 0.89543 2 0 1.10457 0 0L 1 0Z" transform="matrix(0.837788 -0.545995 -0.545995 -0.837788 221.398 23.5098)" fill="#3DBBCF"/>
</g>
<g id="Ellipse 2.5 (Stroke)_18">
<path fill-rule="evenodd" clip-rule="evenodd" d="M 1 0C 1 0.552285 1.44772 1 2 1C 2.55228 1 3 0.552285 3 0L 4 0C 4 1.10457 3.10457 2 2 2C 0.89543 2 0 1.10457 0 0L 1 0Z" transform="matrix(0.837788 -0.545995 -0.545995 -0.837788 223.911 21.8716)" fill="#3DBBCF"/>
</g>
<g id="Ellipse 2.10 (Stroke)_18">
<path fill-rule="evenodd" clip-rule="evenodd" d="M 1 0C 1 0.552285 1.44772 1 2 1C 2.55228 1 3 0.552285 3 0L 4 0C 4 1.10457 3.10457 2 2 2C 0.89543 2 0 1.10457 0 0L 1 0Z" transform="matrix(0.837788 -0.545995 -0.545995 -0.837788 208.831 31.6997)" fill="#3DBBCF"/>
</g>
</g>
<g id="Group 6.1_5">
<g id="Ellipse 2 (Stroke)_19">
<path fill-rule="evenodd" clip-rule="evenodd" d="M 1 0C 1 0.552285 1.44772 1 2 1C 2.55228 1 3 0.552285 3 0L 4 0C 4 1.10457 3.10457 2 2 2C 0.89543 2 0 1.10457 0 0L 1 0Z" transform="matrix(0.545995 0.837788 -0.837788 0.545995 216.342 2.93213)" fill="#3DBBCF"/>
</g>
<g id="Ellipse 2.1 (Stroke)_19">
<path fill-rule="evenodd" clip-rule="evenodd" d="M 1 0C 1 0.552285 1.44772 1 2 1C 2.55228 1 3 0.552285 3 0L 4 0C 4 1.10457 3.10457 2 2 2C 0.89543 2 0 1.10457 0 0L 1 0Z" transform="matrix(0.545995 0.837788 -0.837788 0.545995 217.98 5.4458)" fill="#3DBBCF"/>
</g>
<g id="Ellipse 2.2 (Stroke)_19">
<path fill-rule="evenodd" clip-rule="evenodd" d="M 1 0C 1 0.552285 1.44772 1 2 1C 2.55228 1 3 0.552285 3 0L 4 0C 4 1.10457 3.10457 2 2 2C 0.89543 2 0 1.10457 0 0L 1 0Z" transform="matrix(0.545995 0.837788 -0.837788 0.545995 219.618 7.95898)" fill="#3DBBCF"/>
</g>
<g id="Ellipse 2.3 (Stroke)_19">
<path fill-rule="evenodd" clip-rule="evenodd" d="M 1 0C 1 0.552285 1.44772 1 2 1C 2.55228 1 3 0.552285 3 0L 4 0C 4 1.10457 3.10457 2 2 2C 0.89543 2 0 1.10457 0 0L 1 0Z" transform="matrix(0.545995 0.837788 -0.837788 0.545995 221.256 10.4722)" fill="#3DBBCF"/>
</g>
<g id="Ellipse 2.4 (Stroke)_19">
<path fill-rule="evenodd" clip-rule="evenodd" d="M 1 0C 1 0.552285 1.44772 1 2 1C 2.55228 1 3 0.552285 3 0L 4 0C 4 1.10457 3.10457 2 2 2C 0.89543 2 0 1.10457 0 0L 1 0Z" transform="matrix(0.545995 0.837788 -0.837788 0.545995 222.894 12.9858)" fill="#3DBBCF"/>
</g>
<g id="Ellipse 2.5 (Stroke)_19">
<path fill-rule="evenodd" clip-rule="evenodd" d="M 1 0C 1 0.552285 1.44772 1 2 1C 2.55228 1 3 0.552285 3 0L 4 0C 4 1.10457 3.10457 2 2 2C 0.89543 2 0 1.10457 0 0L 1 0Z" transform="matrix(0.545995 0.837788 -0.837788 0.545995 224.532 15.499)" fill="#3DBBCF"/>
</g>
<g id="Ellipse 2.10 (Stroke)_19">
<path fill-rule="evenodd" clip-rule="evenodd" d="M 1 0C 1 0.552285 1.44772 1 2 1C 2.55228 1 3 0.552285 3 0L 4 0C 4 1.10457 3.10457 2 2 2C 0.89543 2 0 1.10457 0 0L 1 0Z" transform="matrix(0.545995 0.837788 -0.837788 0.545995 214.704 0.418945)" fill="#3DBBCF"/>
</g>
</g>
<g id="Group 6.3_5">
<g id="Ellipse 2 (Stroke)_20">
<path fill-rule="evenodd" clip-rule="evenodd" d="M 1 0C 1 0.552285 1.44772 1 2 1C 2.55228 1 3 0.552285 3 0L 4 0C 4 1.10457 3.10457 2 2 2C 0.89543 2 0 1.10457 0 0L 1 0Z" transform="matrix(0.545995 0.837788 0.837788 -0.545995 197.911 14.9438)" fill="#3DBBCF"/>
</g>
<g id="Ellipse 2.1 (Stroke)_20">
<path fill-rule="evenodd" clip-rule="evenodd" d="M 1 0C 1 0.552285 1.44772 1 2 1C 2.55228 1 3 0.552285 3 0L 4 0C 4 1.10457 3.10457 2 2 2C 0.89543 2 0 1.10457 0 0L 1 0Z" transform="matrix(0.545995 0.837788 0.837788 -0.545995 199.549 17.4575)" fill="#3DBBCF"/>
</g>
<g id="Ellipse 2.2 (Stroke)_20">
<path fill-rule="evenodd" clip-rule="evenodd" d="M 1 0C 1 0.552285 1.44772 1 2 1C 2.55228 1 3 0.552285 3 0L 4 0C 4 1.10457 3.10457 2 2 2C 0.89543 2 0 1.10457 0 0L 1 0Z" transform="matrix(0.545995 0.837788 0.837788 -0.545995 201.187 19.9707)" fill="#3DBBCF"/>
</g>
<g id="Ellipse 2.3 (Stroke)_20">
<path fill-rule="evenodd" clip-rule="evenodd" d="M 1 0C 1 0.552285 1.44772 1 2 1C 2.55228 1 3 0.552285 3 0L 4 0C 4 1.10457 3.10457 2 2 2C 0.89543 2 0 1.10457 0 0L 1 0Z" transform="matrix(0.545995 0.837788 0.837788 -0.545995 202.825 22.4839)" fill="#3DBBCF"/>
</g>
<g id="Ellipse 2.4 (Stroke)_20">
<path fill-rule="evenodd" clip-rule="evenodd" d="M 1 0C 1 0.552285 1.44772 1 2 1C 2.55228 1 3 0.552285 3 0L 4 0C 4 1.10457 3.10457 2 2 2C 0.89543 2 0 1.10457 0 0L 1 0Z" transform="matrix(0.545995 0.837788 0.837788 -0.545995 204.463 24.9976)" fill="#3DBBCF"/>
</g>
<g id="Ellipse 2.5 (Stroke)_20">
<path fill-rule="evenodd" clip-rule="evenodd" d="M 1 0C 1 0.552285 1.44772 1 2 1C 2.55228 1 3 0.552285 3 0L 4 0C 4 1.10457 3.10457 2 2 2C 0.89543 2 0 1.10457 0 0L 1 0Z" transform="matrix(0.545995 0.837788 0.837788 -0.545995 206.101 27.5107)" fill="#3DBBCF"/>
</g>
<g id="Ellipse 2.10 (Stroke)_20">
<path fill-rule="evenodd" clip-rule="evenodd" d="M 1 0C 1 0.552285 1.44772 1 2 1C 2.55228 1 3 0.552285 3 0L 4 0C 4 1.10457 3.10457 2 2 2C 0.89543 2 0 1.10457 0 0L 1 0Z" transform="matrix(0.545995 0.837788 0.837788 -0.545995 196.273 12.4307)" fill="#3DBBCF"/>
</g>
</g>
<g id="Rectangle 3 (Stroke)_5">
<path fill-rule="evenodd" clip-rule="evenodd" d="M 13.5 1.5L 1.5 1.5L 1.5 14.5L 13.5 14.5L 13.5 1.5ZM 0 0L 0 16L 15 16L 15 0L 0 0Z" transform="matrix(0.837788 -0.545995 0.545995 0.837788 201.116 13.4517)" fill="#3DBBCF"/>
</g>
<g id="Vector 2 (Stroke)_5">
<path fill-rule="evenodd" clip-rule="evenodd" d="M 9.35994 0L 13.7955 4.99005L 13.0481 5.65441L 9.48372 1.64446L 6.78148 5.80176L 10.3218 10.5222L 9.52183 11.1222L 3.95556 3.70054L 0.843661 8.59067L 0 8.05379L 3.8881 1.94392L 6.14254 4.94984L 9.35994 0Z" transform="matrix(0.837788 -0.545995 0.545995 0.837788 203.882 16.6362)" fill="#3DBBCF"/>
</g>
</g>
</g>
</g>
</svg>

