<svg width="277" height="191" viewBox="0 0 277 191" version="1.1" xmlns="http://www.w3.org/2000/svg" xmlns:xlink="http://www.w3.org/1999/xlink">
<g id="Canvas" fill="none">
<g id="Group 9.1">
<g id="Rectangle 2.5 (Stroke)">
<path fill-rule="evenodd" clip-rule="evenodd" d="M 13 6.11937L 24.5 13.1963L 24.5 1.5L 1.5 1.5L 1.5 13.1963L 13 6.11937ZM 1.5 16.5L 1.5 14.9576L 13 7.88063L 24.5 14.9576L 24.5 16.5L 1.5 16.5ZM 0 0L 26 0L 26 18L 0 18L 0 0Z" transform="matrix(0.949575 -0.313539 -0.313539 -0.949575 106.269 64.6221)" fill="#3DBBCF"/>
</g>
<g id="Rectangle 2.11 (Stroke)">
<path fill-rule="evenodd" clip-rule="evenodd" d="M 13 6.11937L 24.5 13.1963L 24.5 1.5L 1.5 1.5L 1.5 13.1963L 13 6.11937ZM 1.5 16.5L 1.5 14.9576L 13 7.88063L 24.5 14.9576L 24.5 16.5L 1.5 16.5ZM 0 0L 26 0L 26 18L 0 18L 0 0Z" transform="matrix(0.78347 0.62143 0.62143 -0.78347 244.791 14.1025)" fill="#3DBBCF"/>
</g>
<g id="Rectangle 2.8 (Stroke)">
<path fill-rule="evenodd" clip-rule="evenodd" d="M 13 6.11937L 24.5 13.1963L 24.5 1.5L 1.5 1.5L 1.5 13.1963L 13 6.11937ZM 1.5 16.5L 1.5 14.9576L 13 7.88063L 24.5 14.9576L 24.5 16.5L 1.5 16.5ZM 0 0L 26 0L 26 18L 0 18L 0 0Z" transform="matrix(0.949575 -0.313539 -0.313539 -0.949575 62.4351 27.2444)" fill="#3DBBCF"/>
</g>
<g id="Rectangle 2.6 (Stroke)">
<path fill-rule="evenodd" clip-rule="evenodd" d="M 13 6.11937L 24.5 13.1963L 24.5 1.5L 1.5 1.5L 1.5 13.1963L 13 6.11937ZM 1.5 16.5L 1.5 14.9576L 13 7.88063L 24.5 14.9576L 24.5 16.5L 1.5 16.5ZM 0 0L 26 0L 26 18L 0 18L 0 0Z" transform="matrix(0.809403 0.587254 0.587254 -0.809403 64.1503 127.272)" fill="#3DBBCF"/>
</g>
<g id="Rectangle 2.9 (Stroke)">
<path fill-rule="evenodd" clip-rule="evenodd" d="M 13 6.11937L 24.5 13.1963L 24.5 1.5L 1.5 1.5L 1.5 13.1963L 13 6.11937ZM 1.5 16.5L 1.5 14.9576L 13 7.88063L 24.5 14.9576L 24.5 16.5L 1.5 16.5ZM 0 0L 26 0L 26 18L 0 18L 0 0Z" transform="matrix(0.977739 -0.209823 -0.209823 -0.977739 3.77679 154.446)" fill="#3DBBCF"/>
</g>
<g id="Rectangle 2.7 (Stroke)">
<path fill-rule="evenodd" clip-rule="evenodd" d="M 13 6.11937L 24.5 13.1963L 24.5 1.5L 1.5 1.5L 1.5 13.1963L 13 6.11937ZM 1.5 16.5L 1.5 14.9576L 13 7.88063L 24.5 14.9576L 24.5 16.5L 1.5 16.5ZM 0 0L 26 0L 26 18L 0 18L 0 0Z" transform="matrix(0.876722 -0.480997 -0.480997 -0.876722 173.53 149.062)" fill="#3DBBCF"/>
</g>
<g id="Rectangle 2.10 (Stroke)">
<path fill-rule="evenodd" clip-rule="evenodd" d="M 13 6.11937L 24.5 13.1963L 24.5 1.5L 1.5 1.5L 1.5 13.1963L 13 6.11937ZM 1.5 16.5L 1.5 14.9576L 13 7.88063L 24.5 14.9576L 24.5 16.5L 1.5 16.5ZM 0 0L 26 0L 26 18L 0 18L 0 0Z" transform="matrix(0.954995 0.296623 0.296623 -0.954995 216.791 96.1899)" fill="#3DBBCF"/>
</g>
<g id="Group 7.3">
<g id="Group 6">
<g id="Ellipse 2 (Stroke)">
<path fill-rule="evenodd" clip-rule="evenodd" d="M 1 0C 1 0.552285 1.44772 1 2 1C 2.55228 1 3 0.552285 3 0L 4 0C 4 1.10457 3.10457 2 2 2C 0.89543 2 0 1.10457 0 0L 1 0Z" transform="matrix(0.841182 0.540752 -0.540752 0.841182 146.023 78.6223)" fill="#3DBBCF"/>
</g>
<g id="Ellipse 2.1 (Stroke)">
<path fill-rule="evenodd" clip-rule="evenodd" d="M 1 0C 1 0.552285 1.44772 1 2 1C 2.55228 1 3 0.552285 3 0L 4 0C 4 1.10457 3.10457 2 2 2C 0.89543 2 0 1.10457 0 0L 1 0Z" transform="matrix(0.841182 0.540752 -0.540752 0.841182 148.546 80.2446)" fill="#3DBBCF"/>
</g>
<g id="Ellipse 2.2 (Stroke)">
<path fill-rule="evenodd" clip-rule="evenodd" d="M 1 0C 1 0.552285 1.44772 1 2 1C 2.55228 1 3 0.552285 3 0L 4 0C 4 1.10457 3.10457 2 2 2C 0.89543 2 0 1.10457 0 0L 1 0Z" transform="matrix(0.841182 0.540752 -0.540752 0.841182 151.07 81.8667)" fill="#3DBBCF"/>
</g>
<g id="Ellipse 2.3 (Stroke)">
<path fill-rule="evenodd" clip-rule="evenodd" d="M 1 0C 1 0.552285 1.44772 1 2 1C 2.55228 1 3 0.552285 3 0L 4 0C 4 1.10457 3.10457 2 2 2C 0.89543 2 0 1.10457 0 0L 1 0Z" transform="matrix(0.841182 0.540752 -0.540752 0.841182 153.593 83.489)" fill="#3DBBCF"/>
</g>
<g id="Ellipse 2.4 (Stroke)">
<path fill-rule="evenodd" clip-rule="evenodd" d="M 1 0C 1 0.552285 1.44772 1 2 1C 2.55228 1 3 0.552285 3 0L 4 0C 4 1.10457 3.10457 2 2 2C 0.89543 2 0 1.10457 0 0L 1 0Z" transform="matrix(0.841182 0.540752 -0.540752 0.841182 156.117 85.1113)" fill="#3DBBCF"/>
</g>
<g id="Ellipse 2.5 (Stroke)">
<path fill-rule="evenodd" clip-rule="evenodd" d="M 1 0C 1 0.552285 1.44772 1 2 1C 2.55228 1 3 0.552285 3 0L 4 0C 4 1.10457 3.10457 2 2 2C 0.89543 2 0 1.10457 0 0L 1 0Z" transform="matrix(0.841182 0.540752 -0.540752 0.841182 158.64 86.7336)" fill="#3DBBCF"/>
</g>
<g id="Ellipse 2.10 (Stroke)">
<path fill-rule="evenodd" clip-rule="evenodd" d="M 1 0C 1 0.552285 1.44772 1 2 1C 2.55228 1 3 0.552285 3 0L 4 0C 4 1.10457 3.10457 2 2 2C 0.89543 2 0 1.10457 0 0L 1 0Z" transform="matrix(0.841182 0.540752 -0.540752 0.841182 143.499 77)" fill="#3DBBCF"/>
</g>
</g>
<g id="Group 6.2">
<g id="Ellipse 2 (Stroke)_2">
<path fill-rule="evenodd" clip-rule="evenodd" d="M 1 0C 1 0.552285 1.44772 1 2 1C 2.55228 1 3 0.552285 3 0L 4 0C 4 1.10457 3.10457 2 2 2C 0.89543 2 0 1.10457 0 0L 1 0Z" transform="matrix(0.841182 0.540752 0.540752 -0.841182 133.315 98.3901)" fill="#3DBBCF"/>
</g>
<g id="Ellipse 2.1 (Stroke)_2">
<path fill-rule="evenodd" clip-rule="evenodd" d="M 1 0C 1 0.552285 1.44772 1 2 1C 2.55228 1 3 0.552285 3 0L 4 0C 4 1.10457 3.10457 2 2 2C 0.89543 2 0 1.10457 0 0L 1 0Z" transform="matrix(0.841182 0.540752 0.540752 -0.841182 135.839 100.012)" fill="#3DBBCF"/>
</g>
<g id="Ellipse 2.2 (Stroke)_2">
<path fill-rule="evenodd" clip-rule="evenodd" d="M 1 0C 1 0.552285 1.44772 1 2 1C 2.55228 1 3 0.552285 3 0L 4 0C 4 1.10457 3.10457 2 2 2C 0.89543 2 0 1.10457 0 0L 1 0Z" transform="matrix(0.841182 0.540752 0.540752 -0.841182 138.362 101.635)" fill="#3DBBCF"/>
</g>
<g id="Ellipse 2.3 (Stroke)_2">
<path fill-rule="evenodd" clip-rule="evenodd" d="M 1 0C 1 0.552285 1.44772 1 2 1C 2.55228 1 3 0.552285 3 0L 4 0C 4 1.10457 3.10457 2 2 2C 0.89543 2 0 1.10457 0 0L 1 0Z" transform="matrix(0.841182 0.540752 0.540752 -0.841182 140.886 103.257)" fill="#3DBBCF"/>
</g>
<g id="Ellipse 2.4 (Stroke)_2">
<path fill-rule="evenodd" clip-rule="evenodd" d="M 1 0C 1 0.552285 1.44772 1 2 1C 2.55228 1 3 0.552285 3 0L 4 0C 4 1.10457 3.10457 2 2 2C 0.89543 2 0 1.10457 0 0L 1 0Z" transform="matrix(0.841182 0.540752 0.540752 -0.841182 143.409 104.879)" fill="#3DBBCF"/>
</g>
<g id="Ellipse 2.5 (Stroke)_2">
<path fill-rule="evenodd" clip-rule="evenodd" d="M 1 0C 1 0.552285 1.44772 1 2 1C 2.55228 1 3 0.552285 3 0L 4 0C 4 1.10457 3.10457 2 2 2C 0.89543 2 0 1.10457 0 0L 1 0Z" transform="matrix(0.841182 0.540752 0.540752 -0.841182 145.933 106.501)" fill="#3DBBCF"/>
</g>
<g id="Ellipse 2.10 (Stroke)_2">
<path fill-rule="evenodd" clip-rule="evenodd" d="M 1 0C 1 0.552285 1.44772 1 2 1C 2.55228 1 3 0.552285 3 0L 4 0C 4 1.10457 3.10457 2 2 2C 0.89543 2 0 1.10457 0 0L 1 0Z" transform="matrix(0.841182 0.540752 0.540752 -0.841182 130.791 96.7678)" fill="#3DBBCF"/>
</g>
</g>
<g id="Group 6.1">
<g id="Ellipse 2 (Stroke)_3">
<path fill-rule="evenodd" clip-rule="evenodd" d="M 1 0C 1 0.552285 1.44772 1 2 1C 2.55228 1 3 0.552285 3 0L 4 0C 4 1.10457 3.10457 2 2 2C 0.89543 2 0 1.10457 0 0L 1 0Z" transform="matrix(-0.540752 0.841182 -0.841182 -0.540752 160.112 91.8406)" fill="#3DBBCF"/>
</g>
<g id="Ellipse 2.1 (Stroke)_3">
<path fill-rule="evenodd" clip-rule="evenodd" d="M 1 0C 1 0.552285 1.44772 1 2 1C 2.55228 1 3 0.552285 3 0L 4 0C 4 1.10457 3.10457 2 2 2C 0.89543 2 0 1.10457 0 0L 1 0Z" transform="matrix(-0.540752 0.841182 -0.841182 -0.540752 158.49 94.3643)" fill="#3DBBCF"/>
</g>
<g id="Ellipse 2.2 (Stroke)_3">
<path fill-rule="evenodd" clip-rule="evenodd" d="M 1 0C 1 0.552285 1.44772 1 2 1C 2.55228 1 3 0.552285 3 0L 4 0C 4 1.10457 3.10457 2 2 2C 0.89543 2 0 1.10457 0 0L 1 0Z" transform="matrix(-0.540752 0.841182 -0.841182 -0.540752 156.868 96.8877)" fill="#3DBBCF"/>
</g>
<g id="Ellipse 2.3 (Stroke)_3">
<path fill-rule="evenodd" clip-rule="evenodd" d="M 1 0C 1 0.552285 1.44772 1 2 1C 2.55228 1 3 0.552285 3 0L 4 0C 4 1.10457 3.10457 2 2 2C 0.89543 2 0 1.10457 0 0L 1 0Z" transform="matrix(-0.540752 0.841182 -0.841182 -0.540752 155.246 99.4114)" fill="#3DBBCF"/>
</g>
<g id="Ellipse 2.4 (Stroke)_3">
<path fill-rule="evenodd" clip-rule="evenodd" d="M 1 0C 1 0.552285 1.44772 1 2 1C 2.55228 1 3 0.552285 3 0L 4 0C 4 1.10457 3.10457 2 2 2C 0.89543 2 0 1.10457 0 0L 1 0Z" transform="matrix(-0.540752 0.841182 -0.841182 -0.540752 153.623 101.935)" fill="#3DBBCF"/>
</g>
<g id="Ellipse 2.5 (Stroke)_3">
<path fill-rule="evenodd" clip-rule="evenodd" d="M 1 0C 1 0.552285 1.44772 1 2 1C 2.55228 1 3 0.552285 3 0L 4 0C 4 1.10457 3.10457 2 2 2C 0.89543 2 0 1.10457 0 0L 1 0Z" transform="matrix(-0.540752 0.841182 -0.841182 -0.540752 152.001 104.458)" fill="#3DBBCF"/>
</g>
<g id="Ellipse 2.10 (Stroke)_3">
<path fill-rule="evenodd" clip-rule="evenodd" d="M 1 0C 1 0.552285 1.44772 1 2 1C 2.55228 1 3 0.552285 3 0L 4 0C 4 1.10457 3.10457 2 2 2C 0.89543 2 0 1.10457 0 0L 1 0Z" transform="matrix(-0.540752 0.841182 -0.841182 -0.540752 161.735 89.3171)" fill="#3DBBCF"/>
</g>
</g>
<g id="Group 6.3">
<g id="Ellipse 2 (Stroke)_4">
<path fill-rule="evenodd" clip-rule="evenodd" d="M 1 0C 1 0.552285 1.44772 1 2 1C 2.55228 1 3 0.552285 3 0L 4 0C 4 1.10457 3.10457 2 2 2C 0.89543 2 0 1.10457 0 0L 1 0Z" transform="matrix(-0.540752 0.841182 0.841182 0.540752 141.606 79.9441)" fill="#3DBBCF"/>
</g>
<g id="Ellipse 2.1 (Stroke)_4">
<path fill-rule="evenodd" clip-rule="evenodd" d="M 1 0C 1 0.552285 1.44772 1 2 1C 2.55228 1 3 0.552285 3 0L 4 0C 4 1.10457 3.10457 2 2 2C 0.89543 2 0 1.10457 0 0L 1 0Z" transform="matrix(-0.540752 0.841182 0.841182 0.540752 139.984 82.4678)" fill="#3DBBCF"/>
</g>
<g id="Ellipse 2.2 (Stroke)_4">
<path fill-rule="evenodd" clip-rule="evenodd" d="M 1 0C 1 0.552285 1.44772 1 2 1C 2.55228 1 3 0.552285 3 0L 4 0C 4 1.10457 3.10457 2 2 2C 0.89543 2 0 1.10457 0 0L 1 0Z" transform="matrix(-0.540752 0.841182 0.841182 0.540752 138.362 84.9912)" fill="#3DBBCF"/>
</g>
<g id="Ellipse 2.3 (Stroke)_4">
<path fill-rule="evenodd" clip-rule="evenodd" d="M 1 0C 1 0.552285 1.44772 1 2 1C 2.55228 1 3 0.552285 3 0L 4 0C 4 1.10457 3.10457 2 2 2C 0.89543 2 0 1.10457 0 0L 1 0Z" transform="matrix(-0.540752 0.841182 0.841182 0.540752 136.74 87.5149)" fill="#3DBBCF"/>
</g>
<g id="Ellipse 2.4 (Stroke)_4">
<path fill-rule="evenodd" clip-rule="evenodd" d="M 1 0C 1 0.552285 1.44772 1 2 1C 2.55228 1 3 0.552285 3 0L 4 0C 4 1.10457 3.10457 2 2 2C 0.89543 2 0 1.10457 0 0L 1 0Z" transform="matrix(-0.540752 0.841182 0.841182 0.540752 135.117 90.0383)" fill="#3DBBCF"/>
</g>
<g id="Ellipse 2.5 (Stroke)_4">
<path fill-rule="evenodd" clip-rule="evenodd" d="M 1 0C 1 0.552285 1.44772 1 2 1C 2.55228 1 3 0.552285 3 0L 4 0C 4 1.10457 3.10457 2 2 2C 0.89543 2 0 1.10457 0 0L 1 0Z" transform="matrix(-0.540752 0.841182 0.841182 0.540752 133.495 92.562)" fill="#3DBBCF"/>
</g>
<g id="Ellipse 2.10 (Stroke)_4">
<path fill-rule="evenodd" clip-rule="evenodd" d="M 1 0C 1 0.552285 1.44772 1 2 1C 2.55228 1 3 0.552285 3 0L 4 0C 4 1.10457 3.10457 2 2 2C 0.89543 2 0 1.10457 0 0L 1 0Z" transform="matrix(-0.540752 0.841182 0.841182 0.540752 143.229 77.4207)" fill="#3DBBCF"/>
</g>
</g>
<g id="Rectangle 3 (Stroke)">
<path fill-rule="evenodd" clip-rule="evenodd" d="M 13.5 1.5L 1.5 1.5L 1.5 14.5L 13.5 14.5L 13.5 1.5ZM 0 0L 0 16L 15 16L 15 0L 0 0Z" transform="matrix(0.841182 0.540752 -0.540752 0.841182 144.28 82.2573)" fill="#3DBBCF"/>
</g>
<g id="Vector 2 (Stroke)">
<path fill-rule="evenodd" clip-rule="evenodd" d="M 9.35994 0L 13.7955 4.99005L 13.0481 5.65441L 9.48372 1.64446L 6.78148 5.80176L 10.3218 10.5222L 9.52183 11.1222L 3.95556 3.70054L 0.843661 8.59067L 0 8.05379L 3.8881 1.94392L 6.14254 4.94984L 9.35994 0Z" transform="matrix(0.841182 0.540752 -0.540752 0.841182 142.507 86.0842)" fill="#3DBBCF"/>
</g>
</g>
<g id="Group 7.7">
<g id="Group 6_2">
<g id="Ellipse 2 (Stroke)_5">
<path fill-rule="evenodd" clip-rule="evenodd" d="M 1 0C 1 0.552285 1.44772 1 2 1C 2.55228 1 3 0.552285 3 0L 4 0C 4 1.10457 3.10457 2 2 2C 0.89543 2 0 1.10457 0 0L 1 0Z" transform="matrix(0.841182 0.540752 -0.540752 0.841182 246.023 139.622)" fill="#3DBBCF"/>
</g>
<g id="Ellipse 2.1 (Stroke)_5">
<path fill-rule="evenodd" clip-rule="evenodd" d="M 1 0C 1 0.552285 1.44772 1 2 1C 2.55228 1 3 0.552285 3 0L 4 0C 4 1.10457 3.10457 2 2 2C 0.89543 2 0 1.10457 0 0L 1 0Z" transform="matrix(0.841182 0.540752 -0.540752 0.841182 248.546 141.245)" fill="#3DBBCF"/>
</g>
<g id="Ellipse 2.2 (Stroke)_5">
<path fill-rule="evenodd" clip-rule="evenodd" d="M 1 0C 1 0.552285 1.44772 1 2 1C 2.55228 1 3 0.552285 3 0L 4 0C 4 1.10457 3.10457 2 2 2C 0.89543 2 0 1.10457 0 0L 1 0Z" transform="matrix(0.841182 0.540752 -0.540752 0.841182 251.07 142.867)" fill="#3DBBCF"/>
</g>
<g id="Ellipse 2.3 (Stroke)_5">
<path fill-rule="evenodd" clip-rule="evenodd" d="M 1 0C 1 0.552285 1.44772 1 2 1C 2.55228 1 3 0.552285 3 0L 4 0C 4 1.10457 3.10457 2 2 2C 0.89543 2 0 1.10457 0 0L 1 0Z" transform="matrix(0.841182 0.540752 -0.540752 0.841182 253.593 144.489)" fill="#3DBBCF"/>
</g>
<g id="Ellipse 2.4 (Stroke)_5">
<path fill-rule="evenodd" clip-rule="evenodd" d="M 1 0C 1 0.552285 1.44772 1 2 1C 2.55228 1 3 0.552285 3 0L 4 0C 4 1.10457 3.10457 2 2 2C 0.89543 2 0 1.10457 0 0L 1 0Z" transform="matrix(0.841182 0.540752 -0.540752 0.841182 256.117 146.111)" fill="#3DBBCF"/>
</g>
<g id="Ellipse 2.5 (Stroke)_5">
<path fill-rule="evenodd" clip-rule="evenodd" d="M 1 0C 1 0.552285 1.44772 1 2 1C 2.55228 1 3 0.552285 3 0L 4 0C 4 1.10457 3.10457 2 2 2C 0.89543 2 0 1.10457 0 0L 1 0Z" transform="matrix(0.841182 0.540752 -0.540752 0.841182 258.64 147.733)" fill="#3DBBCF"/>
</g>
<g id="Ellipse 2.10 (Stroke)_5">
<path fill-rule="evenodd" clip-rule="evenodd" d="M 1 0C 1 0.552285 1.44772 1 2 1C 2.55228 1 3 0.552285 3 0L 4 0C 4 1.10457 3.10457 2 2 2C 0.89543 2 0 1.10457 0 0L 1 0Z" transform="matrix(0.841182 0.540752 -0.540752 0.841182 243.499 138)" fill="#3DBBCF"/>
</g>
</g>
<g id="Group 6.2_2">
<g id="Ellipse 2 (Stroke)_6">
<path fill-rule="evenodd" clip-rule="evenodd" d="M 1 0C 1 0.552285 1.44772 1 2 1C 2.55228 1 3 0.552285 3 0L 4 0C 4 1.10457 3.10457 2 2 2C 0.89543 2 0 1.10457 0 0L 1 0Z" transform="matrix(0.841182 0.540752 0.540752 -0.841182 233.315 159.39)" fill="#3DBBCF"/>
</g>
<g id="Ellipse 2.1 (Stroke)_6">
<path fill-rule="evenodd" clip-rule="evenodd" d="M 1 0C 1 0.552285 1.44772 1 2 1C 2.55228 1 3 0.552285 3 0L 4 0C 4 1.10457 3.10457 2 2 2C 0.89543 2 0 1.10457 0 0L 1 0Z" transform="matrix(0.841182 0.540752 0.540752 -0.841182 235.839 161.012)" fill="#3DBBCF"/>
</g>
<g id="Ellipse 2.2 (Stroke)_6">
<path fill-rule="evenodd" clip-rule="evenodd" d="M 1 0C 1 0.552285 1.44772 1 2 1C 2.55228 1 3 0.552285 3 0L 4 0C 4 1.10457 3.10457 2 2 2C 0.89543 2 0 1.10457 0 0L 1 0Z" transform="matrix(0.841182 0.540752 0.540752 -0.841182 238.362 162.634)" fill="#3DBBCF"/>
</g>
<g id="Ellipse 2.3 (Stroke)_6">
<path fill-rule="evenodd" clip-rule="evenodd" d="M 1 0C 1 0.552285 1.44772 1 2 1C 2.55228 1 3 0.552285 3 0L 4 0C 4 1.10457 3.10457 2 2 2C 0.89543 2 0 1.10457 0 0L 1 0Z" transform="matrix(0.841182 0.540752 0.540752 -0.841182 240.886 164.257)" fill="#3DBBCF"/>
</g>
<g id="Ellipse 2.4 (Stroke)_6">
<path fill-rule="evenodd" clip-rule="evenodd" d="M 1 0C 1 0.552285 1.44772 1 2 1C 2.55228 1 3 0.552285 3 0L 4 0C 4 1.10457 3.10457 2 2 2C 0.89543 2 0 1.10457 0 0L 1 0Z" transform="matrix(0.841182 0.540752 0.540752 -0.841182 243.409 165.879)" fill="#3DBBCF"/>
</g>
<g id="Ellipse 2.5 (Stroke)_6">
<path fill-rule="evenodd" clip-rule="evenodd" d="M 1 0C 1 0.552285 1.44772 1 2 1C 2.55228 1 3 0.552285 3 0L 4 0C 4 1.10457 3.10457 2 2 2C 0.89543 2 0 1.10457 0 0L 1 0Z" transform="matrix(0.841182 0.540752 0.540752 -0.841182 245.933 167.501)" fill="#3DBBCF"/>
</g>
<g id="Ellipse 2.10 (Stroke)_6">
<path fill-rule="evenodd" clip-rule="evenodd" d="M 1 0C 1 0.552285 1.44772 1 2 1C 2.55228 1 3 0.552285 3 0L 4 0C 4 1.10457 3.10457 2 2 2C 0.89543 2 0 1.10457 0 0L 1 0Z" transform="matrix(0.841182 0.540752 0.540752 -0.841182 230.791 157.768)" fill="#3DBBCF"/>
</g>
</g>
<g id="Group 6.1_2">
<g id="Ellipse 2 (Stroke)_7">
<path fill-rule="evenodd" clip-rule="evenodd" d="M 1 0C 1 0.552285 1.44772 1 2 1C 2.55228 1 3 0.552285 3 0L 4 0C 4 1.10457 3.10457 2 2 2C 0.89543 2 0 1.10457 0 0L 1 0Z" transform="matrix(-0.540752 0.841182 -0.841182 -0.540752 260.112 152.841)" fill="#3DBBCF"/>
</g>
<g id="Ellipse 2.1 (Stroke)_7">
<path fill-rule="evenodd" clip-rule="evenodd" d="M 1 0C 1 0.552285 1.44772 1 2 1C 2.55228 1 3 0.552285 3 0L 4 0C 4 1.10457 3.10457 2 2 2C 0.89543 2 0 1.10457 0 0L 1 0Z" transform="matrix(-0.540752 0.841182 -0.841182 -0.540752 258.49 155.364)" fill="#3DBBCF"/>
</g>
<g id="Ellipse 2.2 (Stroke)_7">
<path fill-rule="evenodd" clip-rule="evenodd" d="M 1 0C 1 0.552285 1.44772 1 2 1C 2.55228 1 3 0.552285 3 0L 4 0C 4 1.10457 3.10457 2 2 2C 0.89543 2 0 1.10457 0 0L 1 0Z" transform="matrix(-0.540752 0.841182 -0.841182 -0.540752 256.868 157.888)" fill="#3DBBCF"/>
</g>
<g id="Ellipse 2.3 (Stroke)_7">
<path fill-rule="evenodd" clip-rule="evenodd" d="M 1 0C 1 0.552285 1.44772 1 2 1C 2.55228 1 3 0.552285 3 0L 4 0C 4 1.10457 3.10457 2 2 2C 0.89543 2 0 1.10457 0 0L 1 0Z" transform="matrix(-0.540752 0.841182 -0.841182 -0.540752 255.246 160.412)" fill="#3DBBCF"/>
</g>
<g id="Ellipse 2.4 (Stroke)_7">
<path fill-rule="evenodd" clip-rule="evenodd" d="M 1 0C 1 0.552285 1.44772 1 2 1C 2.55228 1 3 0.552285 3 0L 4 0C 4 1.10457 3.10457 2 2 2C 0.89543 2 0 1.10457 0 0L 1 0Z" transform="matrix(-0.540752 0.841182 -0.841182 -0.540752 253.623 162.935)" fill="#3DBBCF"/>
</g>
<g id="Ellipse 2.5 (Stroke)_7">
<path fill-rule="evenodd" clip-rule="evenodd" d="M 1 0C 1 0.552285 1.44772 1 2 1C 2.55228 1 3 0.552285 3 0L 4 0C 4 1.10457 3.10457 2 2 2C 0.89543 2 0 1.10457 0 0L 1 0Z" transform="matrix(-0.540752 0.841182 -0.841182 -0.540752 252.001 165.458)" fill="#3DBBCF"/>
</g>
<g id="Ellipse 2.10 (Stroke)_7">
<path fill-rule="evenodd" clip-rule="evenodd" d="M 1 0C 1 0.552285 1.44772 1 2 1C 2.55228 1 3 0.552285 3 0L 4 0C 4 1.10457 3.10457 2 2 2C 0.89543 2 0 1.10457 0 0L 1 0Z" transform="matrix(-0.540752 0.841182 -0.841182 -0.540752 261.735 150.317)" fill="#3DBBCF"/>
</g>
</g>
<g id="Group 6.3_2">
<g id="Ellipse 2 (Stroke)_8">
<path fill-rule="evenodd" clip-rule="evenodd" d="M 1 0C 1 0.552285 1.44772 1 2 1C 2.55228 1 3 0.552285 3 0L 4 0C 4 1.10457 3.10457 2 2 2C 0.89543 2 0 1.10457 0 0L 1 0Z" transform="matrix(-0.540752 0.841182 0.841182 0.540752 241.606 140.944)" fill="#3DBBCF"/>
</g>
<g id="Ellipse 2.1 (Stroke)_8">
<path fill-rule="evenodd" clip-rule="evenodd" d="M 1 0C 1 0.552285 1.44772 1 2 1C 2.55228 1 3 0.552285 3 0L 4 0C 4 1.10457 3.10457 2 2 2C 0.89543 2 0 1.10457 0 0L 1 0Z" transform="matrix(-0.540752 0.841182 0.841182 0.540752 239.984 143.467)" fill="#3DBBCF"/>
</g>
<g id="Ellipse 2.2 (Stroke)_8">
<path fill-rule="evenodd" clip-rule="evenodd" d="M 1 0C 1 0.552285 1.44772 1 2 1C 2.55228 1 3 0.552285 3 0L 4 0C 4 1.10457 3.10457 2 2 2C 0.89543 2 0 1.10457 0 0L 1 0Z" transform="matrix(-0.540752 0.841182 0.841182 0.540752 238.362 145.991)" fill="#3DBBCF"/>
</g>
<g id="Ellipse 2.3 (Stroke)_8">
<path fill-rule="evenodd" clip-rule="evenodd" d="M 1 0C 1 0.552285 1.44772 1 2 1C 2.55228 1 3 0.552285 3 0L 4 0C 4 1.10457 3.10457 2 2 2C 0.89543 2 0 1.10457 0 0L 1 0Z" transform="matrix(-0.540752 0.841182 0.841182 0.540752 236.74 148.515)" fill="#3DBBCF"/>
</g>
<g id="Ellipse 2.4 (Stroke)_8">
<path fill-rule="evenodd" clip-rule="evenodd" d="M 1 0C 1 0.552285 1.44772 1 2 1C 2.55228 1 3 0.552285 3 0L 4 0C 4 1.10457 3.10457 2 2 2C 0.89543 2 0 1.10457 0 0L 1 0Z" transform="matrix(-0.540752 0.841182 0.841182 0.540752 235.117 151.038)" fill="#3DBBCF"/>
</g>
<g id="Ellipse 2.5 (Stroke)_8">
<path fill-rule="evenodd" clip-rule="evenodd" d="M 1 0C 1 0.552285 1.44772 1 2 1C 2.55228 1 3 0.552285 3 0L 4 0C 4 1.10457 3.10457 2 2 2C 0.89543 2 0 1.10457 0 0L 1 0Z" transform="matrix(-0.540752 0.841182 0.841182 0.540752 233.495 153.562)" fill="#3DBBCF"/>
</g>
<g id="Ellipse 2.10 (Stroke)_8">
<path fill-rule="evenodd" clip-rule="evenodd" d="M 1 0C 1 0.552285 1.44772 1 2 1C 2.55228 1 3 0.552285 3 0L 4 0C 4 1.10457 3.10457 2 2 2C 0.89543 2 0 1.10457 0 0L 1 0Z" transform="matrix(-0.540752 0.841182 0.841182 0.540752 243.229 138.42)" fill="#3DBBCF"/>
</g>
</g>
<g id="Rectangle 3 (Stroke)_2">
<path fill-rule="evenodd" clip-rule="evenodd" d="M 13.5 1.5L 1.5 1.5L 1.5 14.5L 13.5 14.5L 13.5 1.5ZM 0 0L 0 16L 15 16L 15 0L 0 0Z" transform="matrix(0.841182 0.540752 -0.540752 0.841182 244.28 143.257)" fill="#3DBBCF"/>
</g>
<g id="Vector 2 (Stroke)_2">
<path fill-rule="evenodd" clip-rule="evenodd" d="M 9.35994 0L 13.7955 4.99005L 13.0481 5.65441L 9.48372 1.64446L 6.78148 5.80176L 10.3218 10.5222L 9.52183 11.1222L 3.95556 3.70054L 0.843661 8.59067L 0 8.05379L 3.8881 1.94392L 6.14254 4.94984L 9.35994 0Z" transform="matrix(0.841182 0.540752 -0.540752 0.841182 242.507 147.084)" fill="#3DBBCF"/>
</g>
</g>
<g id="Group 7.6">
<g id="Group 6_3">
<g id="Ellipse 2 (Stroke)_9">
<path fill-rule="evenodd" clip-rule="evenodd" d="M 1 0C 1 0.552285 1.44772 1 2 1C 2.55228 1 3 0.552285 3 0L 4 0C 4 1.10457 3.10457 2 2 2C 0.89543 2 0 1.10457 0 0L 1 0Z" transform="matrix(0.468948 0.883226 -0.883226 0.468948 118.025 162.256)" fill="#3DBBCF"/>
</g>
<g id="Ellipse 2.1 (Stroke)_9">
<path fill-rule="evenodd" clip-rule="evenodd" d="M 1 0C 1 0.552285 1.44772 1 2 1C 2.55228 1 3 0.552285 3 0L 4 0C 4 1.10457 3.10457 2 2 2C 0.89543 2 0 1.10457 0 0L 1 0Z" transform="matrix(0.468948 0.883226 -0.883226 0.468948 119.431 164.906)" fill="#3DBBCF"/>
</g>
<g id="Ellipse 2.2 (Stroke)_9">
<path fill-rule="evenodd" clip-rule="evenodd" d="M 1 0C 1 0.552285 1.44772 1 2 1C 2.55228 1 3 0.552285 3 0L 4 0C 4 1.10457 3.10457 2 2 2C 0.89543 2 0 1.10457 0 0L 1 0Z" transform="matrix(0.468948 0.883226 -0.883226 0.468948 120.838 167.556)" fill="#3DBBCF"/>
</g>
<g id="Ellipse 2.3 (Stroke)_9">
<path fill-rule="evenodd" clip-rule="evenodd" d="M 1 0C 1 0.552285 1.44772 1 2 1C 2.55228 1 3 0.552285 3 0L 4 0C 4 1.10457 3.10457 2 2 2C 0.89543 2 0 1.10457 0 0L 1 0Z" transform="matrix(0.468948 0.883226 -0.883226 0.468948 122.245 170.205)" fill="#3DBBCF"/>
</g>
<g id="Ellipse 2.4 (Stroke)_9">
<path fill-rule="evenodd" clip-rule="evenodd" d="M 1 0C 1 0.552285 1.44772 1 2 1C 2.55228 1 3 0.552285 3 0L 4 0C 4 1.10457 3.10457 2 2 2C 0.89543 2 0 1.10457 0 0L 1 0Z" transform="matrix(0.468948 0.883226 -0.883226 0.468948 123.652 172.855)" fill="#3DBBCF"/>
</g>
<g id="Ellipse 2.5 (Stroke)_9">
<path fill-rule="evenodd" clip-rule="evenodd" d="M 1 0C 1 0.552285 1.44772 1 2 1C 2.55228 1 3 0.552285 3 0L 4 0C 4 1.10457 3.10457 2 2 2C 0.89543 2 0 1.10457 0 0L 1 0Z" transform="matrix(0.468948 0.883226 -0.883226 0.468948 125.059 175.504)" fill="#3DBBCF"/>
</g>
<g id="Ellipse 2.10 (Stroke)_9">
<path fill-rule="evenodd" clip-rule="evenodd" d="M 1 0C 1 0.552285 1.44772 1 2 1C 2.55228 1 3 0.552285 3 0L 4 0C 4 1.10457 3.10457 2 2 2C 0.89543 2 0 1.10457 0 0L 1 0Z" transform="matrix(0.468948 0.883226 -0.883226 0.468948 116.618 159.606)" fill="#3DBBCF"/>
</g>
</g>
<g id="Group 6.2_3">
<g id="Ellipse 2 (Stroke)_10">
<path fill-rule="evenodd" clip-rule="evenodd" d="M 1 0C 1 0.552285 1.44772 1 2 1C 2.55228 1 3 0.552285 3 0L 4 0C 4 1.10457 3.10457 2 2 2C 0.89543 2 0 1.10457 0 0L 1 0Z" transform="matrix(0.468948 0.883226 0.883226 -0.468948 97.2688 173.277)" fill="#3DBBCF"/>
</g>
<g id="Ellipse 2.1 (Stroke)_10">
<path fill-rule="evenodd" clip-rule="evenodd" d="M 1 0C 1 0.552285 1.44772 1 2 1C 2.55228 1 3 0.552285 3 0L 4 0C 4 1.10457 3.10457 2 2 2C 0.89543 2 0 1.10457 0 0L 1 0Z" transform="matrix(0.468948 0.883226 0.883226 -0.468948 98.6756 175.926)" fill="#3DBBCF"/>
</g>
<g id="Ellipse 2.2 (Stroke)_10">
<path fill-rule="evenodd" clip-rule="evenodd" d="M 1 0C 1 0.552285 1.44772 1 2 1C 2.55228 1 3 0.552285 3 0L 4 0C 4 1.10457 3.10457 2 2 2C 0.89543 2 0 1.10457 0 0L 1 0Z" transform="matrix(0.468948 0.883226 0.883226 -0.468948 100.082 178.576)" fill="#3DBBCF"/>
</g>
<g id="Ellipse 2.3 (Stroke)_10">
<path fill-rule="evenodd" clip-rule="evenodd" d="M 1 0C 1 0.552285 1.44772 1 2 1C 2.55228 1 3 0.552285 3 0L 4 0C 4 1.10457 3.10457 2 2 2C 0.89543 2 0 1.10457 0 0L 1 0Z" transform="matrix(0.468948 0.883226 0.883226 -0.468948 101.489 181.226)" fill="#3DBBCF"/>
</g>
<g id="Ellipse 2.4 (Stroke)_10">
<path fill-rule="evenodd" clip-rule="evenodd" d="M 1 0C 1 0.552285 1.44772 1 2 1C 2.55228 1 3 0.552285 3 0L 4 0C 4 1.10457 3.10457 2 2 2C 0.89543 2 0 1.10457 0 0L 1 0Z" transform="matrix(0.468948 0.883226 0.883226 -0.468948 102.896 183.875)" fill="#3DBBCF"/>
</g>
<g id="Ellipse 2.5 (Stroke)_10">
<path fill-rule="evenodd" clip-rule="evenodd" d="M 1 0C 1 0.552285 1.44772 1 2 1C 2.55228 1 3 0.552285 3 0L 4 0C 4 1.10457 3.10457 2 2 2C 0.89543 2 0 1.10457 0 0L 1 0Z" transform="matrix(0.468948 0.883226 0.883226 -0.468948 104.303 186.525)" fill="#3DBBCF"/>
</g>
<g id="Ellipse 2.10 (Stroke)_10">
<path fill-rule="evenodd" clip-rule="evenodd" d="M 1 0C 1 0.552285 1.44772 1 2 1C 2.55228 1 3 0.552285 3 0L 4 0C 4 1.10457 3.10457 2 2 2C 0.89543 2 0 1.10457 0 0L 1 0Z" transform="matrix(0.468948 0.883226 0.883226 -0.468948 95.8619 170.627)" fill="#3DBBCF"/>
</g>
</g>
<g id="Group 6.1_3">
<g id="Ellipse 2 (Stroke)_11">
<path fill-rule="evenodd" clip-rule="evenodd" d="M 1 0C 1 0.552285 1.44772 1 2 1C 2.55228 1 3 0.552285 3 0L 4 0C 4 1.10457 3.10457 2 2 2C 0.89543 2 0 1.10457 0 0L 1 0Z" transform="matrix(-0.883226 0.468948 -0.468948 -0.883226 123.843 180.679)" fill="#3DBBCF"/>
</g>
<g id="Ellipse 2.1 (Stroke)_11">
<path fill-rule="evenodd" clip-rule="evenodd" d="M 1 0C 1 0.552285 1.44772 1 2 1C 2.55228 1 3 0.552285 3 0L 4 0C 4 1.10457 3.10457 2 2 2C 0.89543 2 0 1.10457 0 0L 1 0Z" transform="matrix(-0.883226 0.468948 -0.468948 -0.883226 121.194 182.085)" fill="#3DBBCF"/>
</g>
<g id="Ellipse 2.2 (Stroke)_11">
<path fill-rule="evenodd" clip-rule="evenodd" d="M 1 0C 1 0.552285 1.44772 1 2 1C 2.55228 1 3 0.552285 3 0L 4 0C 4 1.10457 3.10457 2 2 2C 0.89543 2 0 1.10457 0 0L 1 0Z" transform="matrix(-0.883226 0.468948 -0.468948 -0.883226 118.544 183.493)" fill="#3DBBCF"/>
</g>
<g id="Ellipse 2.3 (Stroke)_11">
<path fill-rule="evenodd" clip-rule="evenodd" d="M 1 0C 1 0.552285 1.44772 1 2 1C 2.55228 1 3 0.552285 3 0L 4 0C 4 1.10457 3.10457 2 2 2C 0.89543 2 0 1.10457 0 0L 1 0Z" transform="matrix(-0.883226 0.468948 -0.468948 -0.883226 115.894 184.899)" fill="#3DBBCF"/>
</g>
<g id="Ellipse 2.4 (Stroke)_11">
<path fill-rule="evenodd" clip-rule="evenodd" d="M 1 0C 1 0.552285 1.44772 1 2 1C 2.55228 1 3 0.552285 3 0L 4 0C 4 1.10457 3.10457 2 2 2C 0.89543 2 0 1.10457 0 0L 1 0Z" transform="matrix(-0.883226 0.468948 -0.468948 -0.883226 113.245 186.306)" fill="#3DBBCF"/>
</g>
<g id="Ellipse 2.5 (Stroke)_11">
<path fill-rule="evenodd" clip-rule="evenodd" d="M 1 0C 1 0.552285 1.44772 1 2 1C 2.55228 1 3 0.552285 3 0L 4 0C 4 1.10457 3.10457 2 2 2C 0.89543 2 0 1.10457 0 0L 1 0Z" transform="matrix(-0.883226 0.468948 -0.468948 -0.883226 110.595 187.713)" fill="#3DBBCF"/>
</g>
<g id="Ellipse 2.10 (Stroke)_11">
<path fill-rule="evenodd" clip-rule="evenodd" d="M 1 0C 1 0.552285 1.44772 1 2 1C 2.55228 1 3 0.552285 3 0L 4 0C 4 1.10457 3.10457 2 2 2C 0.89543 2 0 1.10457 0 0L 1 0Z" transform="matrix(-0.883226 0.468948 -0.468948 -0.883226 126.493 179.272)" fill="#3DBBCF"/>
</g>
</g>
<g id="Group 6.3_3">
<g id="Ellipse 2 (Stroke)_12">
<path fill-rule="evenodd" clip-rule="evenodd" d="M 1 0C 1 0.552285 1.44772 1 2 1C 2.55228 1 3 0.552285 3 0L 4 0C 4 1.10457 3.10457 2 2 2C 0.89543 2 0 1.10457 0 0L 1 0Z" transform="matrix(-0.883226 0.468948 0.468948 0.883226 113.526 161.248)" fill="#3DBBCF"/>
</g>
<g id="Ellipse 2.1 (Stroke)_12">
<path fill-rule="evenodd" clip-rule="evenodd" d="M 1 0C 1 0.552285 1.44772 1 2 1C 2.55228 1 3 0.552285 3 0L 4 0C 4 1.10457 3.10457 2 2 2C 0.89543 2 0 1.10457 0 0L 1 0Z" transform="matrix(-0.883226 0.468948 0.468948 0.883226 110.877 162.654)" fill="#3DBBCF"/>
</g>
<g id="Ellipse 2.2 (Stroke)_12">
<path fill-rule="evenodd" clip-rule="evenodd" d="M 1 0C 1 0.552285 1.44772 1 2 1C 2.55228 1 3 0.552285 3 0L 4 0C 4 1.10457 3.10457 2 2 2C 0.89543 2 0 1.10457 0 0L 1 0Z" transform="matrix(-0.883226 0.468948 0.468948 0.883226 108.227 164.062)" fill="#3DBBCF"/>
</g>
<g id="Ellipse 2.3 (Stroke)_12">
<path fill-rule="evenodd" clip-rule="evenodd" d="M 1 0C 1 0.552285 1.44772 1 2 1C 2.55228 1 3 0.552285 3 0L 4 0C 4 1.10457 3.10457 2 2 2C 0.89543 2 0 1.10457 0 0L 1 0Z" transform="matrix(-0.883226 0.468948 0.468948 0.883226 105.577 165.468)" fill="#3DBBCF"/>
</g>
<g id="Ellipse 2.4 (Stroke)_12">
<path fill-rule="evenodd" clip-rule="evenodd" d="M 1 0C 1 0.552285 1.44772 1 2 1C 2.55228 1 3 0.552285 3 0L 4 0C 4 1.10457 3.10457 2 2 2C 0.89543 2 0 1.10457 0 0L 1 0Z" transform="matrix(-0.883226 0.468948 0.468948 0.883226 102.928 166.875)" fill="#3DBBCF"/>
</g>
<g id="Ellipse 2.5 (Stroke)_12">
<path fill-rule="evenodd" clip-rule="evenodd" d="M 1 0C 1 0.552285 1.44772 1 2 1C 2.55228 1 3 0.552285 3 0L 4 0C 4 1.10457 3.10457 2 2 2C 0.89543 2 0 1.10457 0 0L 1 0Z" transform="matrix(-0.883226 0.468948 0.468948 0.883226 100.278 168.282)" fill="#3DBBCF"/>
</g>
<g id="Ellipse 2.10 (Stroke)_12">
<path fill-rule="evenodd" clip-rule="evenodd" d="M 1 0C 1 0.552285 1.44772 1 2 1C 2.55228 1 3 0.552285 3 0L 4 0C 4 1.10457 3.10457 2 2 2C 0.89543 2 0 1.10457 0 0L 1 0Z" transform="matrix(-0.883226 0.468948 0.468948 0.883226 116.176 159.841)" fill="#3DBBCF"/>
</g>
</g>
<g id="Rectangle 3 (Stroke)_3">
<path fill-rule="evenodd" clip-rule="evenodd" d="M 13.5 1.5L 1.5 1.5L 1.5 14.5L 13.5 14.5L 13.5 1.5ZM 0 0L 0 16L 15 16L 15 0L 0 0Z" transform="matrix(0.468948 0.883226 -0.883226 0.468948 114.726 164.574)" fill="#3DBBCF"/>
</g>
<g id="Vector 2 (Stroke)_3">
<path fill-rule="evenodd" clip-rule="evenodd" d="M 9.35994 0L 13.7955 4.99005L 13.0481 5.65441L 9.48372 1.64446L 6.78148 5.80176L 10.3218 10.5222L 9.52183 11.1222L 3.95556 3.70054L 0.843661 8.59067L 0 8.05379L 3.8881 1.94392L 6.14254 4.94984L 9.35994 0Z" transform="matrix(0.468948 0.883226 -0.883226 0.468948 111.307 167.043)" fill="#3DBBCF"/>
</g>
</g>
<g id="Group 7.4">
<g id="Group 6_4">
<g id="Ellipse 2 (Stroke)_13">
<path fill-rule="evenodd" clip-rule="evenodd" d="M 1 0C 1 0.552285 1.44772 1 2 1C 2.55228 1 3 0.552285 3 0L 4 0C 4 1.10457 3.10457 2 2 2C 0.89543 2 0 1.10457 0 0L 1 0Z" transform="matrix(0.837788 -0.545995 0.545995 0.837788 35.2804 59.3562)" fill="#3DBBCF"/>
</g>
<g id="Ellipse 2.1 (Stroke)_13">
<path fill-rule="evenodd" clip-rule="evenodd" d="M 1 0C 1 0.552285 1.44772 1 2 1C 2.55228 1 3 0.552285 3 0L 4 0C 4 1.10457 3.10457 2 2 2C 0.89543 2 0 1.10457 0 0L 1 0Z" transform="matrix(0.837788 -0.545995 0.545995 0.837788 37.7938 57.7183)" fill="#3DBBCF"/>
</g>
<g id="Ellipse 2.2 (Stroke)_13">
<path fill-rule="evenodd" clip-rule="evenodd" d="M 1 0C 1 0.552285 1.44772 1 2 1C 2.55228 1 3 0.552285 3 0L 4 0C 4 1.10457 3.10457 2 2 2C 0.89543 2 0 1.10457 0 0L 1 0Z" transform="matrix(0.837788 -0.545995 0.545995 0.837788 40.3071 56.0801)" fill="#3DBBCF"/>
</g>
<g id="Ellipse 2.3 (Stroke)_13">
<path fill-rule="evenodd" clip-rule="evenodd" d="M 1 0C 1 0.552285 1.44772 1 2 1C 2.55228 1 3 0.552285 3 0L 4 0C 4 1.10457 3.10457 2 2 2C 0.89543 2 0 1.10457 0 0L 1 0Z" transform="matrix(0.837788 -0.545995 0.545995 0.837788 42.8205 54.4421)" fill="#3DBBCF"/>
</g>
<g id="Ellipse 2.4 (Stroke)_13">
<path fill-rule="evenodd" clip-rule="evenodd" d="M 1 0C 1 0.552285 1.44772 1 2 1C 2.55228 1 3 0.552285 3 0L 4 0C 4 1.10457 3.10457 2 2 2C 0.89543 2 0 1.10457 0 0L 1 0Z" transform="matrix(0.837788 -0.545995 0.545995 0.837788 45.3339 52.8042)" fill="#3DBBCF"/>
</g>
<g id="Ellipse 2.5 (Stroke)_13">
<path fill-rule="evenodd" clip-rule="evenodd" d="M 1 0C 1 0.552285 1.44772 1 2 1C 2.55228 1 3 0.552285 3 0L 4 0C 4 1.10457 3.10457 2 2 2C 0.89543 2 0 1.10457 0 0L 1 0Z" transform="matrix(0.837788 -0.545995 0.545995 0.837788 47.8472 51.1663)" fill="#3DBBCF"/>
</g>
<g id="Ellipse 2.10 (Stroke)_13">
<path fill-rule="evenodd" clip-rule="evenodd" d="M 1 0C 1 0.552285 1.44772 1 2 1C 2.55228 1 3 0.552285 3 0L 4 0C 4 1.10457 3.10457 2 2 2C 0.89543 2 0 1.10457 0 0L 1 0Z" transform="matrix(0.837788 -0.545995 0.545995 0.837788 32.767 60.9941)" fill="#3DBBCF"/>
</g>
</g>
<g id="Group 6.2_4">
<g id="Ellipse 2 (Stroke)_14">
<path fill-rule="evenodd" clip-rule="evenodd" d="M 1 0C 1 0.552285 1.44772 1 2 1C 2.55228 1 3 0.552285 3 0L 4 0C 4 1.10457 3.10457 2 2 2C 0.89543 2 0 1.10457 0 0L 1 0Z" transform="matrix(0.837788 -0.545995 -0.545995 -0.837788 48.1113 79.0442)" fill="#3DBBCF"/>
</g>
<g id="Ellipse 2.1 (Stroke)_14">
<path fill-rule="evenodd" clip-rule="evenodd" d="M 1 0C 1 0.552285 1.44772 1 2 1C 2.55228 1 3 0.552285 3 0L 4 0C 4 1.10457 3.10457 2 2 2C 0.89543 2 0 1.10457 0 0L 1 0Z" transform="matrix(0.837788 -0.545995 -0.545995 -0.837788 50.6246 77.4062)" fill="#3DBBCF"/>
</g>
<g id="Ellipse 2.2 (Stroke)_14">
<path fill-rule="evenodd" clip-rule="evenodd" d="M 1 0C 1 0.552285 1.44772 1 2 1C 2.55228 1 3 0.552285 3 0L 4 0C 4 1.10457 3.10457 2 2 2C 0.89543 2 0 1.10457 0 0L 1 0Z" transform="matrix(0.837788 -0.545995 -0.545995 -0.837788 53.138 75.7681)" fill="#3DBBCF"/>
</g>
<g id="Ellipse 2.3 (Stroke)_14">
<path fill-rule="evenodd" clip-rule="evenodd" d="M 1 0C 1 0.552285 1.44772 1 2 1C 2.55228 1 3 0.552285 3 0L 4 0C 4 1.10457 3.10457 2 2 2C 0.89543 2 0 1.10457 0 0L 1 0Z" transform="matrix(0.837788 -0.545995 -0.545995 -0.837788 55.6514 74.1301)" fill="#3DBBCF"/>
</g>
<g id="Ellipse 2.4 (Stroke)_14">
<path fill-rule="evenodd" clip-rule="evenodd" d="M 1 0C 1 0.552285 1.44772 1 2 1C 2.55228 1 3 0.552285 3 0L 4 0C 4 1.10457 3.10457 2 2 2C 0.89543 2 0 1.10457 0 0L 1 0Z" transform="matrix(0.837788 -0.545995 -0.545995 -0.837788 58.1647 72.4922)" fill="#3DBBCF"/>
</g>
<g id="Ellipse 2.5 (Stroke)_14">
<path fill-rule="evenodd" clip-rule="evenodd" d="M 1 0C 1 0.552285 1.44772 1 2 1C 2.55228 1 3 0.552285 3 0L 4 0C 4 1.10457 3.10457 2 2 2C 0.89543 2 0 1.10457 0 0L 1 0Z" transform="matrix(0.837788 -0.545995 -0.545995 -0.837788 60.6781 70.8542)" fill="#3DBBCF"/>
</g>
<g id="Ellipse 2.10 (Stroke)_14">
<path fill-rule="evenodd" clip-rule="evenodd" d="M 1 0C 1 0.552285 1.44772 1 2 1C 2.55228 1 3 0.552285 3 0L 4 0C 4 1.10457 3.10457 2 2 2C 0.89543 2 0 1.10457 0 0L 1 0Z" transform="matrix(0.837788 -0.545995 -0.545995 -0.837788 45.5979 80.6821)" fill="#3DBBCF"/>
</g>
</g>
<g id="Group 6.1_4">
<g id="Ellipse 2 (Stroke)_15">
<path fill-rule="evenodd" clip-rule="evenodd" d="M 1 0C 1 0.552285 1.44772 1 2 1C 2.55228 1 3 0.552285 3 0L 4 0C 4 1.10457 3.10457 2 2 2C 0.89543 2 0 1.10457 0 0L 1 0Z" transform="matrix(0.545995 0.837788 -0.837788 0.545995 53.1094 51.9146)" fill="#3DBBCF"/>
</g>
<g id="Ellipse 2.1 (Stroke)_15">
<path fill-rule="evenodd" clip-rule="evenodd" d="M 1 0C 1 0.552285 1.44772 1 2 1C 2.55228 1 3 0.552285 3 0L 4 0C 4 1.10457 3.10457 2 2 2C 0.89543 2 0 1.10457 0 0L 1 0Z" transform="matrix(0.545995 0.837788 -0.837788 0.545995 54.7474 54.4277)" fill="#3DBBCF"/>
</g>
<g id="Ellipse 2.2 (Stroke)_15">
<path fill-rule="evenodd" clip-rule="evenodd" d="M 1 0C 1 0.552285 1.44772 1 2 1C 2.55228 1 3 0.552285 3 0L 4 0C 4 1.10457 3.10457 2 2 2C 0.89543 2 0 1.10457 0 0L 1 0Z" transform="matrix(0.545995 0.837788 -0.837788 0.545995 56.3853 56.9412)" fill="#3DBBCF"/>
</g>
<g id="Ellipse 2.3 (Stroke)_15">
<path fill-rule="evenodd" clip-rule="evenodd" d="M 1 0C 1 0.552285 1.44772 1 2 1C 2.55228 1 3 0.552285 3 0L 4 0C 4 1.10457 3.10457 2 2 2C 0.89543 2 0 1.10457 0 0L 1 0Z" transform="matrix(0.545995 0.837788 -0.837788 0.545995 58.0233 59.4546)" fill="#3DBBCF"/>
</g>
<g id="Ellipse 2.4 (Stroke)_15">
<path fill-rule="evenodd" clip-rule="evenodd" d="M 1 0C 1 0.552285 1.44772 1 2 1C 2.55228 1 3 0.552285 3 0L 4 0C 4 1.10457 3.10457 2 2 2C 0.89543 2 0 1.10457 0 0L 1 0Z" transform="matrix(0.545995 0.837788 -0.837788 0.545995 59.6613 61.968)" fill="#3DBBCF"/>
</g>
<g id="Ellipse 2.5 (Stroke)_15">
<path fill-rule="evenodd" clip-rule="evenodd" d="M 1 0C 1 0.552285 1.44772 1 2 1C 2.55228 1 3 0.552285 3 0L 4 0C 4 1.10457 3.10457 2 2 2C 0.89543 2 0 1.10457 0 0L 1 0Z" transform="matrix(0.545995 0.837788 -0.837788 0.545995 61.2993 64.4812)" fill="#3DBBCF"/>
</g>
<g id="Ellipse 2.10 (Stroke)_15">
<path fill-rule="evenodd" clip-rule="evenodd" d="M 1 0C 1 0.552285 1.44772 1 2 1C 2.55228 1 3 0.552285 3 0L 4 0C 4 1.10457 3.10457 2 2 2C 0.89543 2 0 1.10457 0 0L 1 0Z" transform="matrix(0.545995 0.837788 -0.837788 0.545995 51.4714 49.4011)" fill="#3DBBCF"/>
</g>
</g>
<g id="Group 6.3_4">
<g id="Ellipse 2 (Stroke)_16">
<path fill-rule="evenodd" clip-rule="evenodd" d="M 1 0C 1 0.552285 1.44772 1 2 1C 2.55228 1 3 0.552285 3 0L 4 0C 4 1.10457 3.10457 2 2 2C 0.89543 2 0 1.10457 0 0L 1 0Z" transform="matrix(0.545995 0.837788 0.837788 -0.545995 34.678 63.9265)" fill="#3DBBCF"/>
</g>
<g id="Ellipse 2.1 (Stroke)_16">
<path fill-rule="evenodd" clip-rule="evenodd" d="M 1 0C 1 0.552285 1.44772 1 2 1C 2.55228 1 3 0.552285 3 0L 4 0C 4 1.10457 3.10457 2 2 2C 0.89543 2 0 1.10457 0 0L 1 0Z" transform="matrix(0.545995 0.837788 0.837788 -0.545995 36.316 66.4397)" fill="#3DBBCF"/>
</g>
<g id="Ellipse 2.2 (Stroke)_16">
<path fill-rule="evenodd" clip-rule="evenodd" d="M 1 0C 1 0.552285 1.44772 1 2 1C 2.55228 1 3 0.552285 3 0L 4 0C 4 1.10457 3.10457 2 2 2C 0.89543 2 0 1.10457 0 0L 1 0Z" transform="matrix(0.545995 0.837788 0.837788 -0.545995 37.954 68.9531)" fill="#3DBBCF"/>
</g>
<g id="Ellipse 2.3 (Stroke)_16">
<path fill-rule="evenodd" clip-rule="evenodd" d="M 1 0C 1 0.552285 1.44772 1 2 1C 2.55228 1 3 0.552285 3 0L 4 0C 4 1.10457 3.10457 2 2 2C 0.89543 2 0 1.10457 0 0L 1 0Z" transform="matrix(0.545995 0.837788 0.837788 -0.545995 39.592 71.4666)" fill="#3DBBCF"/>
</g>
<g id="Ellipse 2.4 (Stroke)_16">
<path fill-rule="evenodd" clip-rule="evenodd" d="M 1 0C 1 0.552285 1.44772 1 2 1C 2.55228 1 3 0.552285 3 0L 4 0C 4 1.10457 3.10457 2 2 2C 0.89543 2 0 1.10457 0 0L 1 0Z" transform="matrix(0.545995 0.837788 0.837788 -0.545995 41.23 73.98)" fill="#3DBBCF"/>
</g>
<g id="Ellipse 2.5 (Stroke)_16">
<path fill-rule="evenodd" clip-rule="evenodd" d="M 1 0C 1 0.552285 1.44772 1 2 1C 2.55228 1 3 0.552285 3 0L 4 0C 4 1.10457 3.10457 2 2 2C 0.89543 2 0 1.10457 0 0L 1 0Z" transform="matrix(0.545995 0.837788 0.837788 -0.545995 42.868 76.4932)" fill="#3DBBCF"/>
</g>
<g id="Ellipse 2.10 (Stroke)_16">
<path fill-rule="evenodd" clip-rule="evenodd" d="M 1 0C 1 0.552285 1.44772 1 2 1C 2.55228 1 3 0.552285 3 0L 4 0C 4 1.10457 3.10457 2 2 2C 0.89543 2 0 1.10457 0 0L 1 0Z" transform="matrix(0.545995 0.837788 0.837788 -0.545995 33.04 61.4131)" fill="#3DBBCF"/>
</g>
</g>
<g id="Rectangle 3 (Stroke)_4">
<path fill-rule="evenodd" clip-rule="evenodd" d="M 13.5 1.5L 1.5 1.5L 1.5 14.5L 13.5 14.5L 13.5 1.5ZM 0 0L 0 16L 15 16L 15 0L 0 0Z" transform="matrix(0.837788 -0.545995 0.545995 0.837788 37.8832 62.4343)" fill="#3DBBCF"/>
</g>
<g id="Vector 2 (Stroke)_4">
<path fill-rule="evenodd" clip-rule="evenodd" d="M 9.35994 0L 13.7955 4.99005L 13.0481 5.65441L 9.48372 1.64446L 6.78148 5.80176L 10.3218 10.5222L 9.52183 11.1222L 3.95556 3.70054L 0.843661 8.59067L 0 8.05379L 3.8881 1.94392L 6.14254 4.94984L 9.35994 0Z" transform="matrix(0.837788 -0.545995 0.545995 0.837788 40.6487 65.6187)" fill="#3DBBCF"/>
</g>
</g>
<g id="Group 7.5">
<g id="Group 6_5">
<g id="Ellipse 2 (Stroke)_17">
<path fill-rule="evenodd" clip-rule="evenodd" d="M 1 0C 1 0.552285 1.44772 1 2 1C 2.55228 1 3 0.552285 3 0L 4 0C 4 1.10457 3.10457 2 2 2C 0.89543 2 0 1.10457 0 0L 1 0Z" transform="matrix(0.837788 -0.545995 0.545995 0.837788 170.305 13.374)" fill="#3DBBCF"/>
</g>
<g id="Ellipse 2.1 (Stroke)_17">
<path fill-rule="evenodd" clip-rule="evenodd" d="M 1 0C 1 0.552285 1.44772 1 2 1C 2.55228 1 3 0.552285 3 0L 4 0C 4 1.10457 3.10457 2 2 2C 0.89543 2 0 1.10457 0 0L 1 0Z" transform="matrix(0.837788 -0.545995 0.545995 0.837788 172.818 11.7361)" fill="#3DBBCF"/>
</g>
<g id="Ellipse 2.2 (Stroke)_17">
<path fill-rule="evenodd" clip-rule="evenodd" d="M 1 0C 1 0.552285 1.44772 1 2 1C 2.55228 1 3 0.552285 3 0L 4 0C 4 1.10457 3.10457 2 2 2C 0.89543 2 0 1.10457 0 0L 1 0Z" transform="matrix(0.837788 -0.545995 0.545995 0.837788 175.332 10.0979)" fill="#3DBBCF"/>
</g>
<g id="Ellipse 2.3 (Stroke)_17">
<path fill-rule="evenodd" clip-rule="evenodd" d="M 1 0C 1 0.552285 1.44772 1 2 1C 2.55228 1 3 0.552285 3 0L 4 0C 4 1.10457 3.10457 2 2 2C 0.89543 2 0 1.10457 0 0L 1 0Z" transform="matrix(0.837788 -0.545995 0.545995 0.837788 177.845 8.45996)" fill="#3DBBCF"/>
</g>
<g id="Ellipse 2.4 (Stroke)_17">
<path fill-rule="evenodd" clip-rule="evenodd" d="M 1 0C 1 0.552285 1.44772 1 2 1C 2.55228 1 3 0.552285 3 0L 4 0C 4 1.10457 3.10457 2 2 2C 0.89543 2 0 1.10457 0 0L 1 0Z" transform="matrix(0.837788 -0.545995 0.545995 0.837788 180.358 6.82202)" fill="#3DBBCF"/>
</g>
<g id="Ellipse 2.5 (Stroke)_17">
<path fill-rule="evenodd" clip-rule="evenodd" d="M 1 0C 1 0.552285 1.44772 1 2 1C 2.55228 1 3 0.552285 3 0L 4 0C 4 1.10457 3.10457 2 2 2C 0.89543 2 0 1.10457 0 0L 1 0Z" transform="matrix(0.837788 -0.545995 0.545995 0.837788 182.872 5.18408)" fill="#3DBBCF"/>
</g>
<g id="Ellipse 2.10 (Stroke)_17">
<path fill-rule="evenodd" clip-rule="evenodd" d="M 1 0C 1 0.552285 1.44772 1 2 1C 2.55228 1 3 0.552285 3 0L 4 0C 4 1.10457 3.10457 2 2 2C 0.89543 2 0 1.10457 0 0L 1 0Z" transform="matrix(0.837788 -0.545995 0.545995 0.837788 167.791 15.012)" fill="#3DBBCF"/>
</g>
</g>
<g id="Group 6.2_5">
<g id="Ellipse 2 (Stroke)_18">
<path fill-rule="evenodd" clip-rule="evenodd" d="M 1 0C 1 0.552285 1.44772 1 2 1C 2.55228 1 3 0.552285 3 0L 4 0C 4 1.10457 3.10457 2 2 2C 0.89543 2 0 1.10457 0 0L 1 0Z" transform="matrix(0.837788 -0.545995 -0.545995 -0.837788 183.136 33.062)" fill="#3DBBCF"/>
</g>
<g id="Ellipse 2.1 (Stroke)_18">
<path fill-rule="evenodd" clip-rule="evenodd" d="M 1 0C 1 0.552285 1.44772 1 2 1C 2.55228 1 3 0.552285 3 0L 4 0C 4 1.10457 3.10457 2 2 2C 0.89543 2 0 1.10457 0 0L 1 0Z" transform="matrix(0.837788 -0.545995 -0.545995 -0.837788 185.649 31.4241)" fill="#3DBBCF"/>
</g>
<g id="Ellipse 2.2 (Stroke)_18">
<path fill-rule="evenodd" clip-rule="evenodd" d="M 1 0C 1 0.552285 1.44772 1 2 1C 2.55228 1 3 0.552285 3 0L 4 0C 4 1.10457 3.10457 2 2 2C 0.89543 2 0 1.10457 0 0L 1 0Z" transform="matrix(0.837788 -0.545995 -0.545995 -0.837788 188.162 29.7859)" fill="#3DBBCF"/>
</g>
<g id="Ellipse 2.3 (Stroke)_18">
<path fill-rule="evenodd" clip-rule="evenodd" d="M 1 0C 1 0.552285 1.44772 1 2 1C 2.55228 1 3 0.552285 3 0L 4 0C 4 1.10457 3.10457 2 2 2C 0.89543 2 0 1.10457 0 0L 1 0Z" transform="matrix(0.837788 -0.545995 -0.545995 -0.837788 190.676 28.1479)" fill="#3DBBCF"/>
</g>
<g id="Ellipse 2.4 (Stroke)_18">
<path fill-rule="evenodd" clip-rule="evenodd" d="M 1 0C 1 0.552285 1.44772 1 2 1C 2.55228 1 3 0.552285 3 0L 4 0C 4 1.10457 3.10457 2 2 2C 0.89543 2 0 1.10457 0 0L 1 0Z" transform="matrix(0.837788 -0.545995 -0.545995 -0.837788 193.189 26.51)" fill="#3DBBCF"/>
</g>
<g id="Ellipse 2.5 (Stroke)_18">
<path fill-rule="evenodd" clip-rule="evenodd" d="M 1 0C 1 0.552285 1.44772 1 2 1C 2.55228 1 3 0.552285 3 0L 4 0C 4 1.10457 3.10457 2 2 2C 0.89543 2 0 1.10457 0 0L 1 0Z" transform="matrix(0.837788 -0.545995 -0.545995 -0.837788 195.703 24.8721)" fill="#3DBBCF"/>
</g>
<g id="Ellipse 2.10 (Stroke)_18">
<path fill-rule="evenodd" clip-rule="evenodd" d="M 1 0C 1 0.552285 1.44772 1 2 1C 2.55228 1 3 0.552285 3 0L 4 0C 4 1.10457 3.10457 2 2 2C 0.89543 2 0 1.10457 0 0L 1 0Z" transform="matrix(0.837788 -0.545995 -0.545995 -0.837788 180.622 34.7)" fill="#3DBBCF"/>
</g>
</g>
<g id="Group 6.1_5">
<g id="Ellipse 2 (Stroke)_19">
<path fill-rule="evenodd" clip-rule="evenodd" d="M 1 0C 1 0.552285 1.44772 1 2 1C 2.55228 1 3 0.552285 3 0L 4 0C 4 1.10457 3.10457 2 2 2C 0.89543 2 0 1.10457 0 0L 1 0Z" transform="matrix(0.545995 0.837788 -0.837788 0.545995 188.134 5.93237)" fill="#3DBBCF"/>
</g>
<g id="Ellipse 2.1 (Stroke)_19">
<path fill-rule="evenodd" clip-rule="evenodd" d="M 1 0C 1 0.552285 1.44772 1 2 1C 2.55228 1 3 0.552285 3 0L 4 0C 4 1.10457 3.10457 2 2 2C 0.89543 2 0 1.10457 0 0L 1 0Z" transform="matrix(0.545995 0.837788 -0.837788 0.545995 189.772 8.44556)" fill="#3DBBCF"/>
</g>
<g id="Ellipse 2.2 (Stroke)_19">
<path fill-rule="evenodd" clip-rule="evenodd" d="M 1 0C 1 0.552285 1.44772 1 2 1C 2.55228 1 3 0.552285 3 0L 4 0C 4 1.10457 3.10457 2 2 2C 0.89543 2 0 1.10457 0 0L 1 0Z" transform="matrix(0.545995 0.837788 -0.837788 0.545995 191.41 10.959)" fill="#3DBBCF"/>
</g>
<g id="Ellipse 2.3 (Stroke)_19">
<path fill-rule="evenodd" clip-rule="evenodd" d="M 1 0C 1 0.552285 1.44772 1 2 1C 2.55228 1 3 0.552285 3 0L 4 0C 4 1.10457 3.10457 2 2 2C 0.89543 2 0 1.10457 0 0L 1 0Z" transform="matrix(0.545995 0.837788 -0.837788 0.545995 193.048 13.4724)" fill="#3DBBCF"/>
</g>
<g id="Ellipse 2.4 (Stroke)_19">
<path fill-rule="evenodd" clip-rule="evenodd" d="M 1 0C 1 0.552285 1.44772 1 2 1C 2.55228 1 3 0.552285 3 0L 4 0C 4 1.10457 3.10457 2 2 2C 0.89543 2 0 1.10457 0 0L 1 0Z" transform="matrix(0.545995 0.837788 -0.837788 0.545995 194.686 15.9858)" fill="#3DBBCF"/>
</g>
<g id="Ellipse 2.5 (Stroke)_19">
<path fill-rule="evenodd" clip-rule="evenodd" d="M 1 0C 1 0.552285 1.44772 1 2 1C 2.55228 1 3 0.552285 3 0L 4 0C 4 1.10457 3.10457 2 2 2C 0.89543 2 0 1.10457 0 0L 1 0Z" transform="matrix(0.545995 0.837788 -0.837788 0.545995 196.324 18.499)" fill="#3DBBCF"/>
</g>
<g id="Ellipse 2.10 (Stroke)_19">
<path fill-rule="evenodd" clip-rule="evenodd" d="M 1 0C 1 0.552285 1.44772 1 2 1C 2.55228 1 3 0.552285 3 0L 4 0C 4 1.10457 3.10457 2 2 2C 0.89543 2 0 1.10457 0 0L 1 0Z" transform="matrix(0.545995 0.837788 -0.837788 0.545995 186.496 3.41895)" fill="#3DBBCF"/>
</g>
</g>
<g id="Group 6.3_5">
<g id="Ellipse 2 (Stroke)_20">
<path fill-rule="evenodd" clip-rule="evenodd" d="M 1 0C 1 0.552285 1.44772 1 2 1C 2.55228 1 3 0.552285 3 0L 4 0C 4 1.10457 3.10457 2 2 2C 0.89543 2 0 1.10457 0 0L 1 0Z" transform="matrix(0.545995 0.837788 0.837788 -0.545995 169.702 17.9443)" fill="#3DBBCF"/>
</g>
<g id="Ellipse 2.1 (Stroke)_20">
<path fill-rule="evenodd" clip-rule="evenodd" d="M 1 0C 1 0.552285 1.44772 1 2 1C 2.55228 1 3 0.552285 3 0L 4 0C 4 1.10457 3.10457 2 2 2C 0.89543 2 0 1.10457 0 0L 1 0Z" transform="matrix(0.545995 0.837788 0.837788 -0.545995 171.34 20.4575)" fill="#3DBBCF"/>
</g>
<g id="Ellipse 2.2 (Stroke)_20">
<path fill-rule="evenodd" clip-rule="evenodd" d="M 1 0C 1 0.552285 1.44772 1 2 1C 2.55228 1 3 0.552285 3 0L 4 0C 4 1.10457 3.10457 2 2 2C 0.89543 2 0 1.10457 0 0L 1 0Z" transform="matrix(0.545995 0.837788 0.837788 -0.545995 172.978 22.9709)" fill="#3DBBCF"/>
</g>
<g id="Ellipse 2.3 (Stroke)_20">
<path fill-rule="evenodd" clip-rule="evenodd" d="M 1 0C 1 0.552285 1.44772 1 2 1C 2.55228 1 3 0.552285 3 0L 4 0C 4 1.10457 3.10457 2 2 2C 0.89543 2 0 1.10457 0 0L 1 0Z" transform="matrix(0.545995 0.837788 0.837788 -0.545995 174.616 25.4844)" fill="#3DBBCF"/>
</g>
<g id="Ellipse 2.4 (Stroke)_20">
<path fill-rule="evenodd" clip-rule="evenodd" d="M 1 0C 1 0.552285 1.44772 1 2 1C 2.55228 1 3 0.552285 3 0L 4 0C 4 1.10457 3.10457 2 2 2C 0.89543 2 0 1.10457 0 0L 1 0Z" transform="matrix(0.545995 0.837788 0.837788 -0.545995 176.254 27.9978)" fill="#3DBBCF"/>
</g>
<g id="Ellipse 2.5 (Stroke)_20">
<path fill-rule="evenodd" clip-rule="evenodd" d="M 1 0C 1 0.552285 1.44772 1 2 1C 2.55228 1 3 0.552285 3 0L 4 0C 4 1.10457 3.10457 2 2 2C 0.89543 2 0 1.10457 0 0L 1 0Z" transform="matrix(0.545995 0.837788 0.837788 -0.545995 177.892 30.511)" fill="#3DBBCF"/>
</g>
<g id="Ellipse 2.10 (Stroke)_20">
<path fill-rule="evenodd" clip-rule="evenodd" d="M 1 0C 1 0.552285 1.44772 1 2 1C 2.55228 1 3 0.552285 3 0L 4 0C 4 1.10457 3.10457 2 2 2C 0.89543 2 0 1.10457 0 0L 1 0Z" transform="matrix(0.545995 0.837788 0.837788 -0.545995 168.064 15.4309)" fill="#3DBBCF"/>
</g>
</g>
<g id="Rectangle 3 (Stroke)_5">
<path fill-rule="evenodd" clip-rule="evenodd" d="M 13.5 1.5L 1.5 1.5L 1.5 14.5L 13.5 14.5L 13.5 1.5ZM 0 0L 0 16L 15 16L 15 0L 0 0Z" transform="matrix(0.837788 -0.545995 0.545995 0.837788 172.908 16.4521)" fill="#3DBBCF"/>
</g>
<g id="Vector 2 (Stroke)_5">
<path fill-rule="evenodd" clip-rule="evenodd" d="M 9.35994 0L 13.7955 4.99005L 13.0481 5.65441L 9.48372 1.64446L 6.78148 5.80176L 10.3218 10.5222L 9.52183 11.1222L 3.95556 3.70054L 0.843661 8.59067L 0 8.05379L 3.8881 1.94392L 6.14254 4.94984L 9.35994 0Z" transform="matrix(0.837788 -0.545995 0.545995 0.837788 175.673 19.6365)" fill="#3DBBCF"/>
</g>
</g>
</g>
</g>
</svg>

